<?xml version="1.0" encoding="utf-8"?>
<!-- Generator: Adobe Illustrator 22.1.0, SVG Export Plug-In . SVG Version: 6.00 Build 0)  -->
<svg version="1.1" id="Layer_1" xmlns="http://www.w3.org/2000/svg" xmlns:xlink="http://www.w3.org/1999/xlink" x="0px" y="0px"
	 viewBox="0 0 100 100" style="enable-background:new 0 0 100 100;" xml:space="preserve">
<style type="text/css">
	.st0{fill:#CCB55F;}
</style>
<path class="st0" d="M78.1,83.4H41l10.9-42.2l0.7,0.2c4.1,0.9,7.1,3.3,8.9,6.9c0.1,0.3,0.4,0.5,0.8,0.6c0.1,0,0.1,0,0.2,0
	c0.3,0,0.5-0.1,0.7-0.3s2.2-2,5.2-2.7c0.7-0.2,1.5-0.2,2.2-0.2c3.4,0,6.9,1.7,10.2,5c0.2,0.2,0.5,0.3,0.7,0.3c0.1,0,0.1,0,0.2,0
	c0.3-0.1,0.6-0.3,0.8-0.5c0,0,1-1.8,5.2-1.8c1.2,0,2.6,0.2,4.2,0.5c0.1,0,0.2,0,0.4,0c0.4,0,0.7-0.1,1-0.4c0.6-0.6,0.5-1.5,0.2-3
	c-0.1-0.6-0.2-1-0.2-1.2C93.3,20,73.3,0,48.7,0C44,0,39.4,0.7,35,2.1h-0.1h-0.1c-0.1,0-0.1,0-0.2,0C29.5,4,25.5,6,22.5,8.3l0,0
	l-0.2,0.1c-7.5,5.5-13.1,13.1-16,21.8c-0.1,0.3,0,0.7,0.2,1c0.2,0.2,0.5,0.4,0.8,0.4c0.1,0,0.1,0,0.2,0s1.2-0.2,2.6-0.2
	c4.7,0,7.9,2.1,8.8,5.9c0.1,0.3,0.3,0.6,0.6,0.7c0.1,0.1,0.3,0.1,0.4,0.1c0.2,0,0.3,0,0.5-0.1c0.4-0.2,3.8-1.8,7.8-1.8
	c4.3,0,7.8,2,10,5.7c0.2,0.3,0.5,0.5,0.9,0.5c0.1,0,0.2,0,0.4-0.1c0,0,4.1-1.5,8.9-1.5c0.2,0,0.3,0,0.5,0h1l-11,42.4H27.2
	c-8.6,0-15.6,7-15.6,15.6c0,0.6,0.5,1,1,1h80c0.6,0,1-0.5,1-1C93.7,90.4,86.7,83.4,78.1,83.4z M77.2,13c9,8.1,14.1,19.6,14.1,31.6
	c0,0.4,0.1,0.8,0.1,1.2l0.2,1.1l-1.1-0.2c-1-0.1-1.9-0.2-2.8-0.2c-1.3,0-2.5,0.2-3.5,0.5l-1.1,0.3l0.1-1.2
	c0.6-6.3,0.4-18.8-7.3-32.2l-2.4-4.2L77.2,13z M19,33.1c-2.6-3.1-6.8-3.6-9-3.6H8.8l0.4-1.1c3-7.2,7.9-13.4,14.2-18.1
	c0,0,0.1,0,0.1-0.1c2.9-2.2,6.7-4.2,11.6-6h0.1c3.3-1.1,6.8-1.8,10.3-2l3.6-0.3l-3.2,1.7c-8.3,4.5-19.5,13.2-25.7,29.2L19.7,34
	L19,33.1z M48.2,38.8c-2.2,0-4.6,0.3-6.8,0.9L40.3,40l0.1-1.1C42.5,20.1,52.5,8.7,58.2,3.5l0.3-0.3L59,3.3c1.3,0.3,2.5,0.7,3.8,1.1
	l0.4,0.1V5c5.2,19.9,2.7,32.4-0.2,39.4l-0.5,1.2l-0.8-1C57.9,39.8,52.2,38.8,48.2,38.8z M13.7,97.9l0.1-0.9
	c0.9-6.6,6.7-11.6,13.4-11.6h50.9c6.7,0,12.4,5,13.4,11.6l0.1,0.9H13.7z"/>
</svg>
