<svg id="Layer_1" data-name="Layer 1" xmlns="http://www.w3.org/2000/svg" viewBox="0 0 100 100"><defs><style>.cls-1{fill:#ccb55f;}</style></defs><title>chicken</title><path class="cls-1" d="M98.93,18.73a6.12,6.12,0,0,0-1.34-1.35l-.5-.37.32-.53a3.86,3.86,0,0,0,.3-.62,5.5,5.5,0,0,0-.3-3.73l-.15-.4.28-.32c.93-1,2.9-3.65,1.15-5.78A4.21,4.21,0,0,0,95.38,4h-.3l-.63,0-.1-.63A4.21,4.21,0,0,0,92.72.54,3,3,0,0,0,90.91,0a7.81,7.81,0,0,0-3.52,1.08l-.33.18-.33-.17a7.49,7.49,0,0,0-3.33-1,3.72,3.72,0,0,0-1,.14,2,2,0,0,0-1.19,1.06,4.66,4.66,0,0,0,0,2.91l.21.85h-.89c-5.19,0-12.27,2.59-15.13,9.84-.35.88-.61,1.79-.87,2.69a21.76,21.76,0,0,1-1.11,3.19c-4,8.53-19.36,18.62-28.34,18.62h-.12a5.93,5.93,0,0,1-5.73-4.67C29,33.31,25.64,24.15,23,21.07c-4.25-5-9.16-5.64-14.84-6.33l-.6-.08a6.79,6.79,0,0,0-.9-.05A6.61,6.61,0,0,0,.53,18.47a6.44,6.44,0,0,0-.4,3.85L1.79,29.8,1.68,30A14.3,14.3,0,0,0,0,36.74a14.47,14.47,0,0,0,5.05,11l.31.26-.09.41A8.34,8.34,0,0,0,6.8,55.3,10,10,0,0,0,13,59.48l.51.09.05.52A14.54,14.54,0,0,0,19.3,70.15a31.89,31.89,0,0,0,7.35,4,20.46,20.46,0,0,0,4,.79l.6.08v6L27,98.78a1,1,0,0,0,.18.84A1,1,0,0,0,28,100H42.16a1,1,0,0,0,0-2H36.07l3.4-11.83.42-.08.22,0,.17,0L46.53,84l.22.08a13.63,13.63,0,0,0,1.78.48h.09l.48.08,3.25,14.59a1,1,0,0,0,1,.78H65.79a1,1,0,1,0,0-2H60.87l-3-13.31.56-.22c1.92-.75,3.37-2.63,4.43-4,.27-.36.54-.7.79-1a17.63,17.63,0,0,1,5.57-4.84c9.89-4.27,12.73-12,14.1-23,.49-3.91-.44-10.71-1.18-16.17-.19-1.39-.36-2.67-.5-3.78l-.06-.57.53-.17c1.83-.61,5.14-2,6.78-4.6a6.27,6.27,0,0,0,1-2.82l.06-.75,8.79,1.52.18,0a1,1,0,0,0,1-.75A6.29,6.29,0,0,0,98.93,18.73ZM83.73,2.12a7.69,7.69,0,0,1,2.79,1.14,1,1,0,0,0,.55.16,1,1,0,0,0,.56-.17A7.24,7.24,0,0,1,90.92,2a1.1,1.1,0,0,1,.64.18c1.27.92.79,3.2.78,3.24a1,1,0,0,0,.41,1,1,1,0,0,0,.56.17,1,1,0,0,0,.57-.17,2.62,2.62,0,0,1,1.45-.48,2.32,2.32,0,0,1,1.82.95c1.06,1.3-1.75,3.85-1.78,3.88a1,1,0,0,0-.2,1.26c.31.53,1,2.12.66,3.18a1.57,1.57,0,0,1-.56.71l-.27.19L94.68,16c-.35-.09-.71-.17-1.1-.24l-.51-.1,0-.51c-.54-4.89-3.9-8.5-9-9.68l-.36-.08-.13-.35A9.9,9.9,0,0,1,83,2.88L82.86,2ZM34,98H29.26L32.71,83.5l4.85,2.12Zm5.4-13.76-6.15-2.69v-6.3l.8.12c3.91.6,4.83,1.08,5.24,1.49.59.67,1.14,1.42,1.66,2.14a21.6,21.6,0,0,0,2.37,2.88l.8.79ZM58.83,98H54.11L51.18,84.85l1.21,0h.4c.66,0,1.33,0,2,0H55.9ZM87.9,23.21a4.29,4.29,0,0,1-.66,2.05,9.83,9.83,0,0,1-4.45,3.3l-1.37.58.43-1.41a9.06,9.06,0,0,1,1.93-3.49,4.72,4.72,0,0,1,3.33-1.77H88Zm.46-3.11-.19.38H87.11a6.62,6.62,0,0,0-4.8,2.42,10.37,10.37,0,0,0-2.77,7.55c.13,1.38.39,3.27.66,5.28.69,5.06,1.63,12,1.18,15.65C80.06,62,77.52,68.9,68.46,72.81c-1.89.82-4,2.63-6.31,5.4-.27.33-.55.69-.85,1.08C60,81,58.56,82.85,56.69,82.85l-1.84,0h-.17l-1.9,0a19.47,19.47,0,0,1-3.85-.31,8.84,8.84,0,0,1-2.85-1,12.61,12.61,0,0,1-3.52-3.73,27.38,27.38,0,0,0-1.79-2.3c-1.22-1.37-4.48-1.89-9-2.5a24,24,0,0,1-4.35-.78,29.62,29.62,0,0,1-6.91-3.72,12.57,12.57,0,0,1-4.87-8.31l-.1-.66.66-.11a9.78,9.78,0,0,0,2.09-.63,9.44,9.44,0,0,0,3.21-2.32l.05-.05.07-.07v0a1,1,0,0,0,.21-.58,1,1,0,0,0-1-1,1,1,0,0,0-.78.4h0a7.46,7.46,0,0,1-5.43,2.44H14.4a7.53,7.53,0,0,1-6-3.49,6.38,6.38,0,0,1-1.17-5.57l0-.12L9.87,44.6h0A1,1,0,0,0,10,44.1a1,1,0,0,0-1.78-.59h0L6.39,46.25l-.6-.58A12.45,12.45,0,0,1,9,25.52a12.58,12.58,0,0,1,5.51-1.27h.12a1,1,0,0,0,.06-2H14.5a14.58,14.58,0,0,0-6.37,1.47,14.37,14.37,0,0,0-3.92,2.83l-.9.9L2.07,21.91a4.47,4.47,0,0,1,.28-2.65A4.64,4.64,0,0,1,6.7,16.59a5.07,5.07,0,0,1,.66,0l.6.07c5.48.68,9.81,1.21,13.56,5.64,2.29,2.72,5.5,11.38,5.72,12.72a7.9,7.9,0,0,0,7.68,6.35H35c9.57,0,25.92-10.72,30.16-19.77a23.7,23.7,0,0,0,1.23-3.52c.25-.86.49-1.68.8-2.47,2.5-6.35,8.71-8.6,13.27-8.6a14.48,14.48,0,0,1,2.58.23c4.63.88,7.62,4,8,8.36l0,.32-.23.23A15.88,15.88,0,0,0,88.36,20.1Zm1.87.7.47-.86A17.16,17.16,0,0,1,92,17.88l.24-.31.39.06c2.2.29,3.8,1.05,4.63,2.2a3.69,3.69,0,0,1,.6,1.3l.27,1Z"/><path class="cls-1" d="M83.22,11.52a2.16,2.16,0,1,0,2.17,2.16A2.16,2.16,0,0,0,83.22,11.52Z"/><path class="cls-1" d="M65.88,34.35A1.11,1.11,0,0,0,66,34a1,1,0,0,0-1-1,1,1,0,0,0-.84.5h0c-1.71,3.26-5.92,10.07-9.36,10.72l-1.14.17.11-.91a13.84,13.84,0,0,1,1.69-4.11h0a1,1,0,0,0-.83-1.51,1,1,0,0,0-.82.47h0c-1.89,3.17-2.47,5.7-1.59,7a2.32,2.32,0,0,0,2,1,5.39,5.39,0,0,0,.93-.09c4.11-.77,8.56-7.5,10.77-11.79Z"/><path class="cls-1" d="M76.5,42.79a1,1,0,0,0-.61.23h0a16.09,16.09,0,0,1-6.62,2.81,6,6,0,0,1-1,.11,2.31,2.31,0,0,1-.43,0l-.6-.1,0-.6a3,3,0,0,1,.15-.82h0a1,1,0,0,0,.08-.38,1,1,0,0,0-1.88-.44h0v0s0,.06,0,.08a3.45,3.45,0,0,0,.2,3.21,2.91,2.91,0,0,0,2.5,1,7.38,7.38,0,0,0,1.41-.14,17.15,17.15,0,0,0,7.48-3.21h0a1,1,0,0,0,.38-.77A1,1,0,0,0,76.5,42.79Z"/></svg>