<?xml version="1.0" encoding="utf-8"?>
<!-- Generator: Adobe Illustrator 22.1.0, SVG Export Plug-In . SVG Version: 6.00 Build 0)  -->
<svg version="1.1" id="Layer_1" xmlns="http://www.w3.org/2000/svg" xmlns:xlink="http://www.w3.org/1999/xlink" x="0px" y="0px"
	 viewBox="0 0 100 100" style="enable-background:new 0 0 100 100;" xml:space="preserve">
<path d="M95.1,100c-1.3,0-2.5-0.5-3.4-1.4L50,56.9L8.3,98.6c-0.9,0.9-2.1,1.4-3.4,1.4c-1.3,0-2.5-0.5-3.5-1.4
	C0.5,97.6,0,96.4,0,95.1s0.5-2.5,1.4-3.4L43.1,50L1.4,8.3C0.5,7.4,0,6.2,0,4.9c0-1.3,0.5-2.5,1.4-3.4C2.4,0.5,3.6,0,4.9,0
	s2.5,0.5,3.4,1.4L50,43.1L91.7,1.4C92.6,0.5,93.8,0,95.1,0s2.5,0.5,3.4,1.4c0.9,0.9,1.4,2.1,1.4,3.4c0,1.3-0.5,2.5-1.4,3.4L56.9,50
	l41.7,41.7c0.9,0.9,1.4,2.1,1.4,3.4c0,1.3-0.5,2.5-1.4,3.4C97.6,99.5,96.4,100,95.1,100z"/>
</svg>
