<?xml version="1.0" encoding="utf-8"?>
<!-- Generator: Adobe Illustrator 22.1.0, SVG Export Plug-In . SVG Version: 6.00 Build 0)  -->
<svg version="1.1" id="Layer_1" xmlns="http://www.w3.org/2000/svg" xmlns:xlink="http://www.w3.org/1999/xlink" x="0px" y="0px"
	 viewBox="0 0 100 100" style="enable-background:new 0 0 100 100;" xml:space="preserve">
<style type="text/css">
	.st0{fill:#CCB55F;}
</style>
<g>
	<path class="st0" d="M58.4,74c-2.7,0-5-2.2-5-5V42.1c0-2.7,2.2-5,5-5s5,2.2,5,5V69C63.4,71.8,61.2,74,58.4,74z M58.4,39.1
		c-1.7,0-3,1.3-3,3V69c0,1.7,1.3,3,3,3s3-1.3,3-3V42.1C61.4,40.4,60.1,39.1,58.4,39.1z"/>
	<path class="st0" d="M41.6,74c-2.7,0-5-2.2-5-5V42.1c0-2.7,2.2-5,5-5c2.7,0,5,2.2,5,5V69C46.5,71.8,44.3,74,41.6,74z M41.6,39.1
		c-1.7,0-3,1.3-3,3V69c0,1.7,1.3,3,3,3s3-1.3,3-3V42.1C44.6,40.4,43.2,39.1,41.6,39.1z"/>
	<path class="st0" d="M20.5,100c-2.9,0-5.3-2.4-5.3-5.3c0-2.8,2.2-5.2,5-5.3h0.7l3.9-10c0.1-0.4,0.5-0.6,0.9-0.6h1.2V39.4h-1
		c-0.3,0-0.6,0-1,0c-6.3-0.6-9-5.6-8.8-9.9s3.3-9.4,9.7-10.2l0.9-0.1v-8.7h-6.1c-2.9,0-5.2-2.3-5.2-5.2S17.6,0,20.5,0h59
		c2.9,0,5.2,2.3,5.2,5.2s-2.3,5.2-5.2,5.2h-6.1v8.7l0.9,0.1c6.4,0.8,9.5,5.9,9.7,10.2c0.2,4.4-2.5,9.4-8.8,9.9c-0.3,0-0.7,0-1,0h-1
		v39.2h1.2c0.4,0,0.8,0.2,0.9,0.6l3.9,10h0.7c2.8,0.2,5,2.5,5,5.3c0,2.9-2.4,5.3-5.3,5.3H20.5V100z M20.5,91.3
		c-1.9,0-3.4,1.5-3.4,3.4s1.5,3.4,3.4,3.4h59.1c1.9,0,3.4-1.5,3.4-3.4s-1.5-3.4-3.4-3.4H20.5z M22.9,89.3h54.2l-3.3-8.7H26.2
		L22.9,89.3z M33.8,32.7c-0.2,2.2-1.1,3.6-1.9,4.4c-0.7,0.7-1.5,1.3-2.5,1.7L28.8,39v39.6h42.4V39l-0.6-0.3c-1-0.4-1.8-1-2.5-1.7
		c-1.1-1.2-1.8-2.7-1.9-4.4l-0.1-0.9H33.9L33.8,32.7z M27.6,21.1c-6.3,0-9.4,4.4-9.6,8.5c-0.2,3.6,1.9,7.4,7,7.9c0.3,0,0.6,0,0.8,0
		c1.9,0,3.6-0.6,4.7-1.8c1.1-1.1,1.5-2.7,1.3-4.7v-0.1v-0.1c-0.3-1.8-1.8-2.6-3.2-2.6c-0.1,0-0.2,0-0.3,0c-1.4,0.1-2.2,1-2.2,2.3
		c0,0.5-0.4,1-1,1c-0.5,0-1-0.4-1-1c0-2.3,1.6-4,4-4.2c0.1,0,0.3,0,0.4,0c1.5,0,3.7,0.7,4.7,2.8l0.3,0.6h32.7l0.3-0.6
		c0.4-0.9,1.1-1.7,2.1-2.3c0.8-0.5,1.8-0.7,2.7-0.7c1,0,1.9,0.2,2.6,0.7c1.3,0.8,2,2.3,1.9,4.1c0,0.5-0.5,0.9-1,0.9
		c-0.6,0-1-0.5-1-1c0.1-1.1-0.3-1.9-1-2.3c-0.4-0.3-0.9-0.4-1.5-0.4s-1.3,0.2-1.8,0.5c-0.8,0.5-1.3,1.2-1.4,2.1c0,0.1,0,0.2,0,0.2
		c-0.3,2.1,0.2,3.7,1.3,4.9c1.1,1.1,2.8,1.8,4.7,1.8c0.3,0,0.5,0,0.8,0c5.1-0.5,7.2-4.3,7-7.9c-0.2-4.1-3.3-8.5-9.6-8.5H27.6V21.1z
		 M28.6,19.1h42.9v-8.7H28.6V19.1z M20.5,2c-1.8,0-3.2,1.4-3.2,3.2s1.4,3.2,3.2,3.2h59c1.8,0,3.2-1.4,3.2-3.2S81.3,2,79.5,2H20.5z"
		/>
</g>
</svg>
