<?xml version="1.0" encoding="utf-8"?>
<!-- Generator: Adobe Illustrator 22.1.0, SVG Export Plug-In . SVG Version: 6.00 Build 0)  -->
<svg version="1.1" id="Layer_1" xmlns="http://www.w3.org/2000/svg" xmlns:xlink="http://www.w3.org/1999/xlink" x="0px" y="0px"
	 viewBox="0 0 100 100" style="enable-background:new 0 0 100 100;" xml:space="preserve">
<style type="text/css">
	.st0{fill:#CCB55F;}
</style>
<g>
	<path class="st0" d="M51.6,52.6c-0.5,0-1-0.4-1-1c0-0.5,0.4-1,1-1h3.2c0.5,0,1,0.4,1,1c0,0.5-0.4,1-1,1H51.6z"/>
	<circle class="st0" cx="27.9" cy="65.8" r="2.6"/>
	<circle class="st0" cx="72.1" cy="65.8" r="2.6"/>
	<path class="st0" d="M68.4,22.1c1.4,0,2.8,0.8,3.5,2l11.4,18.6h10.9c3.2,0,5.7,2.6,5.7,5.7V61c0,3.2-2.6,5.7-5.7,5.7h-10l-0.1,0.5
		c-0.8,6-5.9,10.6-12,10.6s-11.2-4.5-12-10.6L60,66.7H39.9l-0.1,0.5c-0.8,6-5.9,10.6-12,10.6s-11.2-4.5-12-10.6l-0.1-0.5H1
		c-0.5,0-1-0.4-1-1v-22c0-0.5,0.4-1,1-1h12.1l11.4-18.6c0.8-1.2,2.1-2,3.5-2H68.4z M72.1,55.7c-5.6,0-10.1,4.5-10.1,10.1
		s4.5,10.1,10.1,10.1s10.1-4.5,10.1-10.1S77.7,55.7,72.1,55.7z M27.9,55.7c-5.6,0-10.1,4.5-10.1,10.1s4.5,10.1,10.1,10.1
		S38,71.4,38,65.8S33.4,55.7,27.9,55.7z M72.1,53.7c6.1,0,11.2,4.5,12,10.6l0.1,0.5h10.1c2.1,0,3.7-1.7,3.7-3.7v-2.2h-3.7
		c-2.3,0-4.2-1.9-4.2-4.2s1.9-4.2,4.2-4.2H98v-2.2c0-2.1-1.7-3.7-3.7-3.7H30.7c-1.4,0-2.8-0.7-3.5-2c-0.8-1.2-0.8-2.7-0.2-4l3.9-7.9
		c0.7-1.4,2.1-2.3,3.7-2.3h37.7l-2-3.3c-0.4-0.6-1.1-1-1.8-1H28.1c-0.7,0-1.5,0.4-1.8,1l-11.7,19c-0.2,0.3-0.5,0.5-0.8,0.5H2v5.9
		h5.3c0.5,0,1,0.4,1,1c0,0.5-0.4,1-1,1H2v4.3h3.7c0.5,0,1,0.4,1,1s-0.4,1-1,1H2v5.9h13.9l0.1-0.5c0.8-6,5.9-10.6,12-10.6
		s11.2,4.5,12,10.6l0.1,0.5h20.2l0.1-0.5C60.9,58.3,66.1,53.7,72.1,53.7z M94.3,52.6c-1.2,0-2.2,1-2.2,2.2s1,2.2,2.2,2.2H98v-4.3
		h-3.7V52.6z M61.7,42.7H81l-7.5-12.2H61.7V42.7z M44.7,42.7h15V30.4h-15V42.7z M34.6,30.4c-0.8,0-1.6,0.5-1.9,1.2l-3.9,7.9
		c-0.3,0.7-0.3,1.5,0.1,2.1s1.1,1,1.8,1h12V30.4H34.6z"/>
</g>
</svg>
