<?xml version="1.0" encoding="utf-8"?>
<!-- Generator: Adobe Illustrator 22.1.0, SVG Export Plug-In . SVG Version: 6.00 Build 0)  -->
<svg version="1.1" id="Layer_1" xmlns="http://www.w3.org/2000/svg" xmlns:xlink="http://www.w3.org/1999/xlink" x="0px" y="0px"
	 viewBox="0 0 100 100" style="enable-background:new 0 0 100 100;" xml:space="preserve">
<style type="text/css">
	.st0{fill:#CCB55F;}
</style>
<g>
	<path class="st0" d="M71.4,2C72.3,2,73,2.7,73,3.6l0,0l0,0l2.4,92.6c-0.4,0.6-2.7,1.7-4,1.7s-3.6-1.1-4-1.7l2.4-39.6v-0.5l-0.2-0.4
		c-0.8-1.8-1.9-3.6-3.2-5.5c-3.7-5.7-8.3-12.9-7.5-26C59.6,13.5,67.2,5.1,70,2.7l0.1-0.1l0.1-0.1c0.1-0.1,0.3-0.2,0.4-0.3h0.1l0,0
		C71,2,71.2,2,71.4,2 M71.4,0c-0.5,0-1,0.1-1.5,0.3l0,0c0,0-0.1,0.1-0.2,0.2c-0.3,0.2-0.7,0.4-0.9,0.7c-2.6,2.2-11.1,11-11.8,23
		c-1.1,18.3,7.8,25.7,10.8,32.4l-2.4,39.8c0,2,4,3.6,6,3.6l0,0c2,0,6-1.6,6-3.6L75,3.6C75,1.6,73.4,0,71.4,0L71.4,0z"/>
	<path class="st0" d="M46.3,2C47.2,2,48,2.7,48,3.6V28c0,3-2.6,6.7-5.2,8.9c-2.7,2.4-4.2,3.9-4.3,3.9l-0.6,0.6v0.9l2.4,54.3
		c-0.6,0.6-2.7,1.3-4,1.3s-3.4-0.8-4-1.3l2.4-54.3v-0.9L34,40.9c-0.1-0.1-1.6-1.5-4.3-3.9c-2.6-2.3-5.2-5.9-5.2-8.9V3.6
		c0-0.9,0.7-1.6,1.6-1.6s1.6,0.7,1.6,1.6v22v2h2h2.8h2v-2v-22c0-0.9,0.7-1.6,1.6-1.6c0.9,0,1.6,0.7,1.6,1.6v22v2h2h2.8h2v-2v-22
		C44.7,2.7,45.5,2,46.3,2 M46.3,0c-2,0-3.6,1.6-3.6,3.6v22h-2.8v-22c0-2-1.6-3.6-3.6-3.6s-3.6,1.6-3.6,3.6v22h-2.8v-22
		c0-2-1.6-3.6-3.6-3.6s-3.6,1.6-3.6,3.6V28c0,3.9,3.1,8,5.9,10.4c2.7,2.4,4.2,3.9,4.2,3.9L30.2,97c0,1.7,4,3,6,3l0,0c2,0,6-1.4,6-3
		l-2.4-54.7c0,0,1.5-1.5,4.2-3.9c2.8-2.4,6-6.5,6-10.4V3.6C50,1.6,48.4,0,46.3,0L46.3,0z M36.3,0L36.3,0L36.3,0L36.3,0z"/>
</g>
</svg>
