<?xml version="1.0" encoding="utf-8"?>
<!-- Generator: Adobe Illustrator 22.1.0, SVG Export Plug-In . SVG Version: 6.00 Build 0)  -->
<svg version="1.1" id="Layer_1" xmlns="http://www.w3.org/2000/svg" xmlns:xlink="http://www.w3.org/1999/xlink" x="0px" y="0px"
	 viewBox="0 0 100 100" style="enable-background:new 0 0 100 100;" xml:space="preserve">
<style type="text/css">
	.st0{fill:#CCB55F;}
</style>
<path class="st0" d="M90,12H10C4.5,12,0,16.5,0,22v56c0,5.5,4.5,10,10,10h80c5.5,0,10-4.5,10-10V22C100,16.5,95.5,12,90,12z M98,78
	c0,4.4-3.6,8-8,8H10c-4.4,0-8-3.6-8-8V28c0.3,0.4,0.7,0.8,1.1,1.2l0,0h0.1c0.1,0.1,0.3,0.3,0.4,0.4l0,0l42,35.4
	c1.2,1,2.8,1.6,4.5,1.6s3.2-0.5,4.5-1.6l42-35.4l0,0c0.1-0.1,0.3-0.3,0.4-0.4l0,0l0,0c0.4-0.4,0.8-0.8,1.1-1.2L98,78L98,78z
	 M95.6,27.8L53.2,63.5c-1.7,1.5-4.6,1.5-6.4,0L4.4,27.8C2.9,26.3,2,24.2,2,22l0,0c0-4.4,3.6-8,8-8h80c4.4,0,8,3.6,8,8l0,0
	C98,24.2,97.1,26.3,95.6,27.8z"/>
</svg>
