<?xml version="1.0" encoding="utf-8"?>
<!-- Generator: Adobe Illustrator 22.1.0, SVG Export Plug-In . SVG Version: 6.00 Build 0)  -->
<svg version="1.1" id="Layer_1" xmlns="http://www.w3.org/2000/svg" xmlns:xlink="http://www.w3.org/1999/xlink" x="0px" y="0px"
	 viewBox="0 0 100 100" style="enable-background:new 0 0 100 100;" xml:space="preserve">
<style type="text/css">
	.st0{fill:#CCB55F;}
</style>
<g>
	<path class="st0" d="M25.1,76.6c-1.4,0-2.6,1.2-2.6,2.6s1.2,2.6,2.6,2.6s2.6-1.2,2.6-2.6S26.5,76.6,25.1,76.6z"/>
	<path class="st0" d="M72.9,76.6c-1.4,0-2.6,1.2-2.6,2.6s1.2,2.6,2.6,2.6s2.6-1.2,2.6-2.6S74.3,76.6,72.9,76.6z"/>
	<path class="st0" d="M100,27.1c0-0.6-0.5-1-1-1h-6.7V10.7H99c0.6,0,1-0.5,1-1c0-0.6-0.5-1-1-1H1c-0.6,0-1,0.5-1,1c0,0.6,0.5,1,1,1
		h6.3v15.4H1c-0.6,0-1,0.5-1,1c0,0.6,0.5,1,1,1h2.1l-0.9,1C0.8,30.7,0,32.8,0,35v36.3c0,4.9,4,8.9,8.9,8.9h4.2l0.1,0.5
		c0.8,6,5.9,10.6,12,10.6s11.2-4.5,12-10.6l0.1-0.5H61l0.1,0.5c0.8,6,5.9,10.6,12,10.6s11.2-4.5,12-10.6l0.1-0.5h6.1
		c4.9,0,8.9-4,8.9-8.9V47.2c0-2-0.7-4-1.9-5.5C94.7,37.4,88.2,29.3,88,29l-0.8-1H99C99.5,28.1,100,27.6,100,27.1z M64.6,10.7h11.8
		v15.4H64.6V10.7z M50.8,10.7h11.8v15.4H50.8V10.7z M37,10.7h11.8v15.4H37V10.7z M23.2,10.7H35v15.4H23.2V10.7z M9.3,10.7h11.8v15.4
		H9.3V10.7z M2,35c0-3.8,3.1-6.9,6.9-6.9h48v13.4H2V35z M25.1,89.3c-5.5,0-10.1-4.5-10.1-10.1s4.5-10.1,10.1-10.1
		c5.5,0,10.1,4.5,10.1,10.1S30.7,89.3,25.1,89.3z M56.9,78.2H37.1L37,77.7c-0.8-6-5.9-10.6-12-10.6s-11.2,4.5-12,10.6l-0.1,0.5h-4
		c-3.8,0-6.9-3.1-6.9-6.9v-1.2h5.1c0.6,0,1-0.5,1-1c0-0.6-0.5-1-1-1H2v-3.9h7.1c0.6,0,1-0.5,1-1c0-0.6-0.5-1-1-1H2v-5.7h54.9V78.2z
		 M72.9,89.3c-5.5,0-10.1-4.5-10.1-10.1s4.5-10.1,10.1-10.1S83,73.7,83,79.2S78.5,89.3,72.9,89.3z M98,68h-5.7c-1.2,0-2.2-1-2.2-2.2
		s1-2.2,2.2-2.2H98V68z M96.5,42.9c1,1.2,1.5,2.7,1.5,4.3V52H71.7c-2.1,0-3.7-1.7-3.7-3.7v-9.1c0-2.1,1.7-3.7,3.7-3.7h18.8
		L96.5,42.9z M87.7,31.9l0.4,0.5l0.7,0.9H71.7c-3.2,0-5.8,2.6-5.8,5.8v9.1c0,3.2,2.6,5.8,5.8,5.8H98v7.7h-5.7
		c-2.3,0-4.2,1.9-4.2,4.2c0,2.3,1.9,4.2,4.2,4.2H98v1.4c0,3.8-3.1,6.9-6.9,6.9H85l-0.1-0.5c-0.8-6-5.9-10.6-12-10.6
		s-11.2,4.5-12,10.6l-0.1,0.5h-2V28.1h22.4C84.8,28.1,86.4,30.2,87.7,31.9z M90.3,26.1H78.5V10.7h11.8V26.1z"/>
</g>
</svg>
