<?xml version="1.0" encoding="utf-8"?>
<!-- Generator: Adobe Illustrator 22.1.0, SVG Export Plug-In . SVG Version: 6.00 Build 0)  -->
<svg version="1.1" id="Layer_1" xmlns="http://www.w3.org/2000/svg" xmlns:xlink="http://www.w3.org/1999/xlink" x="0px" y="0px"
	 viewBox="0 0 100 100" style="enable-background:new 0 0 100 100;" xml:space="preserve">
<style type="text/css">
	.st0{fill:#CCB55F;}
</style>
<path class="st0" d="M30.1,27.8c0.2,0,0.3,0,0.5,0.1l29.2,14.7l18.1-8.5c3.9-1.8,7.4-2.7,10.6-2.7c2.7,0,5.2,0.6,7.4,1.9
	c1,0.6,2.1,1.4,2.1,2.4c0,0.7-0.6,2.5-6,5L32.2,68.6c-3.4,1.6-9,2.9-14.3,3.4c-1.3,0.1-2.5,0.2-3.7,0.2c-2.7,0-4.8-0.3-5.9-0.9
	c-0.3-0.1-0.5-0.4-0.5-0.7c-0.1-0.3,0-0.6,0.2-0.9c0.3-0.4,0.8-0.9,1.4-1.4l0.8-0.7l-7.9-9.9C2,57.5,2,57.1,2,56.8
	c0.1-0.3,0.3-0.6,0.6-0.7l3.9-1.8c0.1-0.1,0.3-0.1,0.5-0.1c0.1,0,0.3,0,0.4,0.1L22.7,60l20.5-9.7L23.1,29.9
	c-0.3-0.3-0.4-0.8-0.2-1.2c0.2-0.4,0.5-0.7,1-0.7C23.8,28.1,30.1,27.8,30.1,27.8 M30.1,25.8c-0.1,0-0.1,0-6.4,0.3
	c-1.2,0.1-2.3,0.8-2.7,1.9c-0.4,1.1-0.2,2.4,0.7,3.3l18.1,18.4l-17.2,8.2L8.1,52.3c-0.3-0.1-0.7-0.2-1.1-0.2c-0.5,0-0.9,0.1-1.3,0.3
	l-3.9,1.8c-0.9,0.4-1.5,1.2-1.7,2.1c-0.2,0.9,0,1.9,0.6,2.6l6.7,8.4c-0.4,0.4-0.8,0.8-1,1.2c-0.5,0.7-0.7,1.6-0.5,2.5s0.8,1.6,1.5,2
	c1.8,1,4.7,1.2,6.9,1.2c1.2,0,2.5-0.1,3.8-0.2c5.4-0.5,11.3-1.9,14.9-3.6l59.8-27.9c4.8-2.2,7.1-4.4,7.1-6.8c0.1-1.6-1-3-3-4.2
	c-2.5-1.5-5.3-2.2-8.4-2.2c-3.5,0-7.4,1-11.5,2.9l-17.3,8.1L31.5,26.1C31.1,25.9,30.6,25.8,30.1,25.8L30.1,25.8z"/>
</svg>
