<?xml version="1.0" encoding="utf-8"?>
<!-- Generator: Adobe Illustrator 22.1.0, SVG Export Plug-In . SVG Version: 6.00 Build 0)  -->
<svg version="1.1" id="Layer_1" xmlns="http://www.w3.org/2000/svg" xmlns:xlink="http://www.w3.org/1999/xlink" x="0px" y="0px"
	 viewBox="0 0 100 100" style="enable-background:new 0 0 100 100;" xml:space="preserve">
<style type="text/css">
	.st0{fill:#CCB55F;}
</style>
<g>
	<path class="st0" d="M94,35.6c0,0-2.4-10.7-10.7-10.7c-0.2,0-0.4,0-0.5,0c-8.2,0.5-8.4,15.8-24.3,15.8c-0.9,0-1.8,0-2.8-0.1
		c-13.4-1.4-12.2-14.4-17.4-21.7c0.1,0.1,0.1,0.2,0.2,0.3c1.8-1,5.6-3.4,4.4-6.5c-0.8-2.3-2.3-2.8-3.5-2.8c-1.1,0-2.1,0.5-2.1,0.5
		s0.8-2.6-2-4.7c-1-0.7-2-0.9-3-0.9c-1.8,0-3.2,0.8-3.2,0.8C28.7,2,25.8,0,22.6,0c-2.6,0-5.3,1.4-6.9,4.4
		c-2.8,5.4,2.5,10.2,4.4,11.7l0,0c-2.3,1.5-4.6,3.9-6.2,7.9c0,0,0,0,0-0.1c-5.3,1.5-9.1,2.8-8.8,5.3c0.3,2.3,4.7,3.6,6.6,4
		c0-0.1,0-0.3,0-0.4c0,0.4-0.1,0.8-0.1,1.3c0-0.3,0-0.6,0.1-0.9c0,0-9.8,6.9-6.6,12c1.7,2.6,4.5,2.9,7,2.5v-0.1
		c-0.1-0.9-0.2-1.8-0.3-2.6c0.1,0.9,0.2,1.7,0.3,2.6C15,72,30.2,82,44.4,84.3c0,0.1,0,0.1,0,0.2v10.3l-7.9-2.7
		c-0.1,0-0.2-0.1-0.3-0.1c-0.4,0-0.8,0.3-1,0.7c-0.1,0.3-0.1,0.5,0,0.8c0.1,0.2,0.3,0.4,0.6,0.5l6.3,2.2L35.8,98
		c-0.3,0.1-0.5,0.3-0.6,0.5S35,99,35.1,99.3c0.1,0.4,0.5,0.7,1,0.7c0.1,0,0.2,0,0.3,0l9.2-2.7c0.4-0.1,0.7-0.5,0.7-1V84.7
		c1.6,0.2,3.1,0.3,4.7,0.3h0.1c3.3,0,6.6-0.4,10-1.2v11.1l-7.9-2.7c-0.1,0-0.2-0.1-0.3-0.1c-0.4,0-0.8,0.3-1,0.7
		c-0.2,0.5,0.1,1.1,0.6,1.3l6.3,2.2L52.6,98c-0.5,0.2-0.8,0.7-0.7,1.3c0.1,0.4,0.5,0.7,1,0.7c0.1,0,0.2,0,0.3,0l9.2-2.7
		c0.4-0.1,0.7-0.5,0.7-1V83.5c0-0.1,0-0.2-0.1-0.3C82.6,78,100.9,60.6,94,35.6z M36.6,16.9c-0.2-0.2-0.5-0.4-0.7-0.6
		C36.1,16.5,36.3,16.7,36.6,16.9z M35.7,16.2c-0.3-0.2-0.6-0.4-0.9-0.6C35.1,15.8,35.4,16,35.7,16.2z M34.6,15.5
		c-0.3-0.2-0.6-0.3-1-0.5C34,15.2,34.3,15.4,34.6,15.5z M33.5,15c-0.3-0.1-0.7-0.3-1.1-0.4C32.8,14.7,33.1,14.8,33.5,15z M32.3,14.6
		c-0.4-0.1-0.8-0.2-1.2-0.3C31.5,14.4,31.9,14.5,32.3,14.6z M30.8,14.2c-0.4-0.1-0.9-0.1-1.3-0.2C30,14.1,30.4,14.1,30.8,14.2z
		 M29.2,14c-0.5,0-1-0.1-1.5-0.1C28.2,14,28.8,14,29.2,14z M37.4,17.8c-0.2-0.2-0.4-0.5-0.7-0.7C36.9,17.3,37.2,17.5,37.4,17.8z
		 M38.2,18.7c-0.2-0.3-0.4-0.5-0.6-0.8C37.8,18.2,38,18.4,38.2,18.7z M21.4,15.5c-0.1,0-0.1,0.1-0.2,0.1
		C21.3,15.5,21.3,15.5,21.4,15.5z M26.7,14h-0.1C26.7,14,26.7,14,26.7,14z M26,14L26,14L26,14z M25.4,14.1c-0.1,0-0.1,0-0.2,0
		C25.3,14.2,25.3,14.2,25.4,14.1z M24.4,14.3L24.4,14.3L24.4,14.3z M23.5,14.6c-0.1,0-0.1,0-0.2,0.1C23.4,14.6,23.5,14.6,23.5,14.6z
		 M22.4,15L22.4,15L22.4,15z M12.1,31c-0.1,0.4-0.1,0.9-0.2,1.3C11.9,31.8,12,31.4,12.1,31z M13.8,24.4c-0.1,0.3-0.2,0.6-0.3,0.9
		C13.6,25,13.7,24.7,13.8,24.4z M13.3,25.8c-0.1,0.4-0.3,0.8-0.4,1.3C13,26.6,13.1,26.2,13.3,25.8z M12.8,27.4
		c-0.1,0.4-0.2,0.7-0.3,1.1C12.6,28.2,12.7,27.8,12.8,27.4z M12.4,29.1c-0.1,0.4-0.2,0.8-0.2,1.2C12.2,29.9,12.3,29.5,12.4,29.1z
		 M11.5,37.5c0,0.5,0,1,0,1.5C11.5,38.5,11.5,37.9,11.5,37.5z M11.6,34.9c0,0.6-0.1,1.2-0.1,1.9C11.6,36.1,11.6,35.5,11.6,34.9z
		 M11.6,42.4c0,0.6,0.1,1.3,0.1,2C11.7,43.7,11.7,43.1,11.6,42.4z M11.5,39.7c0,0.7,0,1.5,0.1,2.2C11.6,41.1,11.5,40.4,11.5,39.7z
		 M51.1,82.9L51.1,82.9c-15.9,0-34-9.3-37-35.5c-1.5-12.7,0.1-22.2,4.5-27.3c3.2-3.7,7.1-4.2,8.6-4.2c0.2,0,0.3,0,0.5,0
		c8.2,0,10,5.1,12.3,11.5c2.3,6.6,5,14,15.5,15.1c1,0.1,2,0.2,3,0.2c10.4,0,14.9-6.1,18.2-10.6c2.4-3.2,3.9-5.1,6.3-5.3
		c0.1,0,0.3,0,0.4,0c6.5,0,8.7,9.1,8.7,9.2l0,0l0,0c3,10.8,1.2,21-5.3,29.5C79,76,64.7,82.9,51.1,82.9z"/>
	<path class="st0" d="M77.9,48.4L77.9,48.4c-0.4,0-0.6,0.2-0.8,0.4s-0.2,0.5-0.2,0.8c0.4,2.9-0.6,6.4-2.7,9.4
		c-1.7,2.4-5,5.6-10.7,6.9c-2.6,0.6-5.1,0.9-7.4,0.9c-5.7,0-10.4-1.9-14.2-5.6c-4.1-4-5.5-8.7-5.5-8.7c-0.1-0.4-0.5-0.7-1-0.7
		c-0.1,0-0.2,0-0.3,0c-0.3,0.1-0.5,0.2-0.6,0.5c-0.1,0.2-0.2,0.5-0.1,0.8c0.1,0.2,1.6,5.2,6,9.5c4.2,4.1,9.5,6.2,15.8,6.2
		c2.5,0,5.1-0.3,7.8-1c10.5-2.5,15.9-11.6,15-18.6C78.9,48.8,78.4,48.4,77.9,48.4z"/>
</g>
</svg>
