<?xml version="1.0" encoding="utf-8"?>
<!-- Generator: Adobe Illustrator 22.1.0, SVG Export Plug-In . SVG Version: 6.00 Build 0)  -->
<svg version="1.1" id="Layer_1" xmlns="http://www.w3.org/2000/svg" xmlns:xlink="http://www.w3.org/1999/xlink" x="0px" y="0px"
	 viewBox="0 0 100 100" style="enable-background:new 0 0 100 100;" xml:space="preserve">
<style type="text/css">
	.st0{fill:#CCB55F;}
</style>
<path class="st0" d="M83.6,45.1c-2.8-14.8-14.8-25.8-29.5-27.6v-4h5.4V5.4h-5.4V0H46v5.4h-5.4v8.1H46v4
	c-14.7,1.7-26.7,12.7-29.5,27.6H4.9v16.3V100h11.5h23.1h21h23.1h11.5V61.4V45.1H83.6z M45.9,19.6v7.5H54v-7.5
	c13.6,1.7,24.8,11.9,27.5,25.5H18.4C21.2,31.4,32.3,21.3,45.9,19.6z M6.9,98V63.4c4.2,0.5,7.5,4.1,7.5,8.4V98H6.9z M41.5,98V71.9
	c0-4.7,3.8-8.5,8.5-8.5s8.5,3.8,8.5,8.5V98H41.5z M60.5,98V71.9c0-5.8-4.7-10.5-10.5-10.5s-10.5,4.7-10.5,10.5V98H16.4V71.9
	c0-5.4-4.2-9.9-9.5-10.4V47.1H16h68h9.1v14.3c-5.3,0.5-9.5,5-9.5,10.4V98H60.5z M93.1,98h-7.5V71.9c0-4.3,3.3-7.9,7.5-8.4V98z"/>
</svg>
