<?xml version="1.0" encoding="utf-8"?>
<!-- Generator: Adobe Illustrator 22.1.0, SVG Export Plug-In . SVG Version: 6.00 Build 0)  -->
<svg version="1.1" id="Layer_1" xmlns="http://www.w3.org/2000/svg" xmlns:xlink="http://www.w3.org/1999/xlink" x="0px" y="0px"
	 viewBox="0 0 100 100" style="enable-background:new 0 0 100 100;" xml:space="preserve">
<style type="text/css">
	.st0{fill:#CCB55F;}
</style>
<g>
	<path class="st0" d="M98.1,41.6l-9.7-12.3c-1.7-2.1-4.2-3.4-7-3.4h-5.3v-0.6c0-2.8-2.3-5.1-5.1-5.1c-2.8,0-5.1,2.3-5.1,5.1v0.6h-57
		c-4.9,0-8.9,4-8.9,8.9v36.5c0,4.9,4,8.9,8.9,8.9h4.2l0.1,0.5c0.8,6,5.9,10.6,12,10.6s11.2-4.5,12-10.6l0.1-0.5h23.8l0.1,0.5
		c0.8,6,5.9,10.6,12,10.6s11.2-4.5,12-10.6l0.1-0.5h6.2c4.9,0,8.9-4,8.9-8.9V47.1C100,45.1,99.3,43.1,98.1,41.6z M67.8,25.3
		c0-1.7,1.4-3.2,3.2-3.2c1.7,0,3.2,1.4,3.2,3.2v0.6h-6.3L67.8,25.3L67.8,25.3z M25.1,89.3c-5.6,0-10.1-4.5-10.1-10.1
		s4.5-10.1,10.1-10.1s10.1,4.5,10.1,10.1S30.7,89.3,25.1,89.3z M72.9,89.3c-5.6,0-10.1-4.5-10.1-10.1s4.5-10.1,10.1-10.1
		S83,73.7,83,79.2C83,84.8,78.5,89.3,72.9,89.3z M98,68h-5.7c-1.2,0-2.2-1-2.2-2.2s1-2.2,2.2-2.2H98V68z M98,61.7h-5.7
		c-2.3,0-4.2,1.9-4.2,4.2c0,2.3,1.9,4.2,4.2,4.2H98v1.3c0,3.8-3.1,6.9-6.9,6.9h-6.2l-0.1-0.5c-0.8-6-5.9-10.6-12-10.6
		s-11.2,4.5-12,10.6l-0.1,0.5H37.1L37,77.8c-0.8-6-5.9-10.6-12-10.6s-11.2,4.5-12,10.6l-0.1,0.5h-4c-3.8,0-6.9-3.1-6.9-6.9v-3.1h5.1
		c0.5,0,1-0.4,1-1c0-0.5-0.4-1-1-1H2v-3.9h7.1c0.5,0,1-0.4,1-1s-0.4-1-1-1H2V34.8c0-3.8,3.1-6.9,6.9-6.9h72.5c3.4,0,5.1,2.1,6.4,3.8
		l0.4,0.5l0.8,1H78.3c-3.5,0-6.6,2.5-7.4,6l-1.2,5.4c-0.5,2.2,0.1,4.6,1.5,6.3c1.4,1.8,3.6,2.8,5.9,2.8H98V61.7z M98,49.3
		c0,0.6,0,1.2,0,1.9v0.6H77.1c-1.7,0-3.3-0.8-4.3-2.1c-1.1-1.3-1.5-3-1.1-4.7l1.2-5.4c0.5-2.6,2.8-4.4,5.4-4.4h12.2l0.2,0.2
		c1.2,1.5,2.2,2.7,3,3.7C98,44.5,98.1,44.6,98,49.3z"/>
	<path class="st0" d="M25.1,76.7c-1.4,0-2.6,1.2-2.6,2.6s1.2,2.6,2.6,2.6s2.6-1.2,2.6-2.6S26.5,76.7,25.1,76.7z"/>
	<path class="st0" d="M72.9,76.7c-1.4,0-2.6,1.2-2.6,2.6s1.2,2.6,2.6,2.6s2.6-1.2,2.6-2.6S74.3,76.7,72.9,76.7z"/>
	<path class="st0" d="M51.4,44.1h-6.3v-6.3c0-0.5-0.4-1-1-1h-7.9c-0.5,0-1,0.4-1,1v6.3h-6.3c-0.5,0-1,0.4-1,1V53c0,0.5,0.4,1,1,1
		h6.3v6.5c0,0.5,0.4,1,1,1h7.9c0.5,0,1-0.4,1-1V54h6.3c0.5,0,1-0.4,1-1v-7.9C52.4,44.5,51.9,44.1,51.4,44.1z"/>
</g>
</svg>
