<?xml version="1.0" encoding="utf-8"?>
<!-- Generator: Adobe Illustrator 22.1.0, SVG Export Plug-In . SVG Version: 6.00 Build 0)  -->
<svg version="1.1" id="Layer_1" xmlns="http://www.w3.org/2000/svg" xmlns:xlink="http://www.w3.org/1999/xlink" x="0px" y="0px"
	 viewBox="0 0 100 100" style="enable-background:new 0 0 100 100;" xml:space="preserve">
<style type="text/css">
	.st0{fill:#CCB55F;}
</style>
<path class="st0" d="M15.6,2.1c1.6,0,3,0.6,4.1,1.7l15.4,15.4c2.3,2.3,2.2,6.1-0.2,8.5l-2.6,2.6l-5.2,5.2L26,36.6l0.8,1.3
	c0.2,0.4,0.5,0.8,0.7,1.3l0.1,0.3c2.8,5,6.6,11.9,13.9,19.2s14.1,11.1,19.2,13.9c0.5,0.3,1.1,0.6,1.5,0.9l1.3,0.7l1.1-1.1l7.8-7.8
	c1.2-1.2,2.8-1.9,4.5-1.9c1.6,0,3,0.6,4.1,1.7l15.4,15.4c2.3,2.3,2.2,6.1-0.2,8.5l-3.5,3.4L91.8,93c-1.7,1.3-3.7,2.5-5.8,3.3
	c-2,0.8-3.9,1.3-5.9,1.5c-0.1,0-0.7,0.1-1.6,0.1c-5.6,0-25.8-1.9-50.1-26.2C7.9,51.2,0.3,36.3,2.3,20c0.2-2,0.7-3.9,1.5-5.9
	C4.6,12,5.7,10,7.1,8.3l0.8-1L11.1,4C12.4,2.8,13.9,2.1,15.6,2.1 M15.6,0.1c-2.1,0-4.2,0.8-5.9,2.5L5.4,6.9L5.5,7
	C4,8.9,2.8,11,1.9,13.3c-0.8,2.2-1.4,4.3-1.6,6.4c-2,17,5.7,32.5,26.7,53.4c24.7,24.7,45.3,26.8,51.5,26.8c1.1,0,1.7-0.1,1.8-0.1
	c2.2-0.3,4.3-0.8,6.4-1.6c2.3-0.9,4.4-2.1,6.3-3.6l0.1,0.1l4.4-4.3c3.2-3.2,3.3-8.3,0.2-11.4L82.3,63.6c-1.5-1.5-3.5-2.2-5.5-2.2
	c-2.1,0-4.2,0.8-5.9,2.5l-7.8,7.8c-0.5-0.3-1-0.6-1.5-0.9C56.7,68,50,64.3,42.9,57.2S32.1,43.4,29.3,38.5c-0.3-0.5-0.6-1-0.8-1.5
	l5.2-5.2l2.6-2.6c3.2-3.2,3.3-8.3,0.2-11.4L21.1,2.4C19.6,0.9,17.6,0.1,15.6,0.1L15.6,0.1z"/>
</svg>
