<svg id="Layer_1" data-name="Layer 1" xmlns="http://www.w3.org/2000/svg" viewBox="0 0 100 100"><defs><style>.cls-1{fill:#ccb55f;}</style></defs><title>sheep</title><path class="cls-1" d="M82.11,56.3a2.15,2.15,0,1,0,2.15,2.15A2.15,2.15,0,0,0,82.11,56.3Z"/><path class="cls-1" d="M63.52,100a1,1,0,0,1-1-1v-6.6l-4.69-14-.67.26a49.68,49.68,0,0,1-17.43,3.16,50.11,50.11,0,0,1-7.64-.59,47.09,47.09,0,0,1-9.56-2.52l-.68-.27L17.24,92.29l1.62,6.47a1,1,0,0,1-.73,1.21.88.88,0,0,1-.24,0H7.75a1,1,0,0,1-1-1V92.37L0,65.45a1,1,0,0,1,0-.24A29.43,29.43,0,0,1,4.26,49.46L4.55,49l-.41-.39c-2.79-2.65-5.53-7.14-2.68-13.53l.12-.27-.11-.28C1,33.31-1.18,27.16,3.82,23.82a1,1,0,0,1,1.39.27,1,1,0,0,1-.27,1.38A5.39,5.39,0,0,0,2.58,30.6l.08,1.2,1-.66a4.37,4.37,0,0,1,4.82,7.3,4.39,4.39,0,0,1-5-.12l-.92-.67-.18,1.12a9,9,0,0,0,2.74,8l.55.55.49-.6a31.12,31.12,0,0,1,7.37-6.65c7.94-5.22,18.79-8,31.39-8,10.19,0,20.11,2,27.94,5.54l.65.29.28-.65a12,12,0,0,1,8.11-6.85.68.68,0,0,1,.2,0,1,1,0,0,1,1,.8.62.62,0,0,1,0,.19c0,1.19,1.18,3.8,1.59,4.63a9.37,9.37,0,0,1-.3,9.13l-.23.41.29.36a10.53,10.53,0,0,1,2,3.82c1.32,5.29,4.8,7.18,5.84,7.64l.13.06h3.21A4.37,4.37,0,0,1,100,61.83v3.38a4.37,4.37,0,0,1-4.37,4.37h-3l-.19.15a18.31,18.31,0,0,1-11.35,4,17.75,17.75,0,0,1-2.91-.23,19.38,19.38,0,0,1-4.23-1.17L73,72V92.12l1.66,6.65a1,1,0,0,1-.11.75,1,1,0,0,1-.61.45,1,1,0,0,1-.24,0Zm1-2h7.88l-1.2-4.77H64.51ZM8.75,98h7.87l-1.19-4.77H8.75Zm49.7-22a1,1,0,0,1,.92.62l4.87,14.59H71v-21a1,1,0,0,1,1-1,1,1,0,0,1,.54.15A16.73,16.73,0,0,0,81,71.76,16.27,16.27,0,0,0,91,68.32l.28-.21v-9l-.36-.19a13.11,13.11,0,0,1-6.37-8.68,9.76,9.76,0,0,0-2.35-3.91,1,1,0,0,1-.08-1.24,7.51,7.51,0,0,0,.82-8.16,24.54,24.54,0,0,1-1.42-3.49l-.24-.75-.72.33a9.94,9.94,0,0,0-5.44,6.6,1,1,0,0,1-1,.73,1.09,1.09,0,0,1-.26,0,.84.84,0,0,1-.2-.08c-7.82-4-18-6.14-28.75-6.14-12,0-22.79,2.71-30.29,7.65C6.3,47.23,2.05,55.05,2,65v.09L8.53,91.25h7l4.84-14.53a1.14,1.14,0,0,1,.18-.32l.09-.09.09-.07.09-.06a12.38,12.38,0,0,0,6.26-11,1,1,0,0,1,2,0,14.26,14.26,0,0,1-4.76,10.88l-.87.79,1.11.39a46.4,46.4,0,0,0,8,2,48.14,48.14,0,0,0,7.19.54,47.32,47.32,0,0,0,18.34-3.67A1,1,0,0,1,58.45,76Zm34.79-8.45h2.39A2.39,2.39,0,0,0,98,65.21V61.83a2.4,2.4,0,0,0-2.38-2.39H93.24ZM6.06,32.41a2.39,2.39,0,1,0,2.39,2.38A2.39,2.39,0,0,0,6.06,32.41Z"/></svg>