<?xml version="1.0" encoding="utf-8"?>
<!-- Generator: Adobe Illustrator 22.1.0, SVG Export Plug-In . SVG Version: 6.00 Build 0)  -->
<svg version="1.1" id="Layer_1" xmlns="http://www.w3.org/2000/svg" xmlns:xlink="http://www.w3.org/1999/xlink" x="0px" y="0px"
	 viewBox="0 0 100 100" style="enable-background:new 0 0 100 100;" xml:space="preserve">
<style type="text/css">
	.st0{fill:#CCB55F;}
</style>
<g>
	<path class="st0" d="M54.7,64h-3.2c-0.5,0-1,0.4-1,1c0,0.5,0.4,1,1,1h3.2c0.5,0,1-0.4,1-1C55.7,64.5,55.3,64,54.7,64z"/>
	<path class="st0" d="M27.9,76.7c-1.4,0-2.6,1.2-2.6,2.6s1.2,2.6,2.6,2.6s2.6-1.2,2.6-2.6S29.3,76.7,27.9,76.7z"/>
	<path class="st0" d="M72.1,76.7c-1.4,0-2.6,1.2-2.6,2.6s1.2,2.6,2.6,2.6s2.6-1.2,2.6-2.6S73.6,76.7,72.1,76.7z"/>
	<path class="st0" d="M94.3,56.1H83.4L71.9,37.5c-0.8-1.2-2.1-2-3.5-2h-5.5v-6.9c0-0.5-0.4-1-1-1H38.1c-0.5,0-1,0.4-1,1v6.9H28
		c-1.4,0-2.8,0.8-3.5,2L13.1,56.1H1c-0.5,0-1,0.4-1,1v22.1c0,0.5,0.4,1,1,1h14.8l0.1,0.5c0.8,6,5.9,10.6,12,10.6s11.2-4.5,12-10.6
		l0.1-0.5h20.2l0.1,0.5c0.8,6,5.9,10.6,12,10.6s11.2-4.5,12-10.6l0.1-0.5h10.1c3.2,0,5.7-2.6,5.7-5.7V61.9
		C100,58.7,97.4,56.1,94.3,56.1z M81,56.1H61.7V43.9h11.8L81,56.1z M54.9,29.7h5.9v5.9h-5.9V29.7z M39.1,29.7H45v5.9h-5.9V29.7z
		 M27.9,89.3c-5.6,0-10.1-4.5-10.1-10.1s4.5-10.1,10.1-10.1S38,73.6,38,79.2C37.9,84.8,33.4,89.3,27.9,89.3z M72.1,89.3
		c-5.6,0-10.1-4.5-10.1-10.1s4.5-10.1,10.1-10.1s10.1,4.5,10.1,10.1S77.7,89.3,72.1,89.3z M98,70.3h-3.7c-1.2,0-2.2-1-2.2-2.2
		s1-2.2,2.2-2.2H98V70.3z M98,64h-3.7c-2.3,0-4.2,1.9-4.2,4.2c0,2.3,1.9,4.2,4.2,4.2H98v2.2c0,2.1-1.7,3.7-3.7,3.7H84.2l-0.1-0.5
		c-0.8-6-5.9-10.6-12-10.6s-11.2,4.5-12,10.6L60,78.3H39.9l-0.1-0.5c-0.8-6-5.9-10.6-12-10.6s-11.2,4.5-12,10.6l-0.1,0.5H2v-5.9h3.7
		c0.5,0,1-0.4,1-1c0-0.5-0.4-1-1-1H2V66h5.3c0.5,0,1-0.4,1-1c0-0.5-0.4-1-1-1H2v-5.9h11.7c0.3,0,0.7-0.2,0.8-0.5l11.7-19
		c0.4-0.6,1.1-1,1.8-1h40.3c0.7,0,1.5,0.4,1.8,1l2,3.3H34.6c-1.6,0-3,0.9-3.7,2.3L27,52.1c-0.6,1.3-0.6,2.8,0.2,4
		c0.8,1.2,2.1,2,3.5,2h63.6c2.1,0,3.7,1.7,3.7,3.7C98,61.8,98,64,98,64z M59.7,43.9v12.2h-15V43.9H59.7z M42.7,43.9v12.2h-12
		c-0.8,0-1.4-0.4-1.8-1s-0.4-1.4-0.1-2.1l3.9-7.9c0.4-0.7,1.1-1.2,1.9-1.2H42.7z"/>
</g>
</svg>
