<?xml version="1.0" encoding="utf-8"?>
<!-- Generator: Adobe Illustrator 22.1.0, SVG Export Plug-In . SVG Version: 6.00 Build 0)  -->
<svg version="1.1" id="Layer_1" xmlns="http://www.w3.org/2000/svg" xmlns:xlink="http://www.w3.org/1999/xlink" x="0px" y="0px"
	 viewBox="0 0 100 100" style="enable-background:new 0 0 100 100;" xml:space="preserve">
<style type="text/css">
	.st0{fill:#CCB55F;}
</style>
<path class="st0" d="M50,0C22.4,0,0,22.4,0,50s22.4,50,50,50s50-22.4,50-50S77.6,0,50,0z M50,30.8c10.6,0,19.2,8.6,19.2,19.2
	S60.6,69.2,50,69.2S30.8,60.6,30.8,50S39.4,30.8,50,30.8z M65.5,64.4c3.5-3.8,5.7-8.9,5.7-14.4c0-5.6-2.2-10.7-5.8-14.5l18.8-19.1
	C92.8,25.1,98,36.9,98,50c0,13-5.2,24.7-13.6,33.4L65.5,64.4z M2,50c0-13,5.2-24.8,13.6-33.4l18.9,19c-3.5,3.8-5.7,8.9-5.7,14.5
	c0,5.7,2.2,10.8,5.9,14.6l-18.9,19C7.3,75,2,63.1,2,50z"/>
</svg>
