<?xml version="1.0" encoding="utf-8"?>
<!-- Generator: Adobe Illustrator 22.1.0, SVG Export Plug-In . SVG Version: 6.00 Build 0)  -->
<svg version="1.1" id="Layer_1" xmlns="http://www.w3.org/2000/svg" xmlns:xlink="http://www.w3.org/1999/xlink" x="0px" y="0px"
	 viewBox="0 0 100 100" style="enable-background:new 0 0 100 100;" xml:space="preserve">
<style type="text/css">
	.st0{fill:#CCB55F;}
</style>
<g>
	<path class="st0" d="M1,100c-0.4,0-0.7-0.2-0.9-0.5s-0.2-0.7,0-1l11.4-19.6c0.2-0.3,0.5-0.5,0.9-0.5H44v-11H25.5
		c-0.4,0-0.7-0.2-0.9-0.5c-0.2-0.3-0.2-0.7,0-1l19.6-39.2c0.2-0.4,0.5-0.6,0.9-0.6c0.1,0,0.2,0,0.2,0c0.5,0.1,0.8,0.5,0.8,1v51.1h11
		V1c0-0.6,0.5-1,1-1c22.2,0,40.2,18,40.2,40.2c0,13.9-7,26.6-18.8,34L73,78.3h26c0.6,0,1,0.5,1,1c0,11.4-9.3,20.6-20.6,20.6L1,100
		L1,100z M2.8,97.9h76.5c8.8,0,16.4-6.2,18.2-14.8l0.5-2.7H13L2.8,97.9z M59.2,78.4l2.4-0.2c19.4-1.8,34.7-18.4,34.7-38
		S81.1,4,61.6,2.2L59.2,2V78.4z M27.2,65.3h16.9V31.6L39.9,40L27.2,65.3z"/>
</g>
</svg>
