<svg id="Layer_1" data-name="Layer 1" xmlns="http://www.w3.org/2000/svg" viewBox="0 0 100 100"><defs><style>.cls-1{fill:#ccb55f;}</style></defs><title>sheep</title><path class="cls-1" d="M87.18,24.2a2.15,2.15,0,1,0,2.15,2.14A2.14,2.14,0,0,0,87.18,24.2Z"/><path class="cls-1" d="M68.59,100a1,1,0,0,1-.89-.55l-3.38-6.76a1,1,0,0,1-.1-.44V74.57l-1.17,1a9.4,9.4,0,0,1-12.81-.2L49.85,75l-.46.28a6.92,6.92,0,0,1-7.64-.27l-.66-.48-.33.67a7.77,7.77,0,0,1-10.88,1l-.42-.34-.44.33A8.64,8.64,0,0,1,24.59,78l-.64,0V92l3.28,6.55a1,1,0,0,1-.89,1.44H19.58a1,1,0,0,1-.89-.55l-3.38-6.76a1,1,0,0,1-.1-.44V76.07l-.81.14a9.24,9.24,0,0,1-1.57.13A9.45,9.45,0,0,1,4.59,62.27l.33-.58-.56-.35a9.3,9.3,0,0,1-2.26-2A9.43,9.43,0,0,1,3.51,46l.38-.31-.17-.47A6.05,6.05,0,0,1,6.45,38l.4-.22,0-.46a7.32,7.32,0,0,1,0-.81,7.76,7.76,0,0,1,7.75-7.75,7.32,7.32,0,0,1,.81,0l.45.05.23-.4a6.23,6.23,0,0,1,.54-.8,6.05,6.05,0,0,1,4.74-2.27,6,6,0,0,1,3.78,1.33l.44.35.43-.35a6.08,6.08,0,0,1,3.8-1.33,6,6,0,0,1,2.62.6l.57.26.32-.53a7.76,7.76,0,0,1,11-2.33l.38.26.39-.24a9.51,9.51,0,0,1,6.65-1.25l.69.13.12-.69a7.78,7.78,0,0,1,5.34-6l.78-.24-.37-.73a7.76,7.76,0,0,1,9.42-10.8l.55.19.28-.5A6.9,6.9,0,0,1,74.5,0a6.87,6.87,0,0,1,5.26,2.43l.39.45.5-.31a6.15,6.15,0,0,1,1.63-.69,6.08,6.08,0,0,1,7.39,4.36l.14.54.75,0a7.75,7.75,0,0,1,5,13.65l-.53.45.45.54A18.17,18.17,0,0,1,100,33.1c0,2.53-.72,4.26-2.15,5.13a4.45,4.45,0,0,1-2.26.61h-.12a12.3,12.3,0,0,1-4.64-1.15l-1-.41,0,1a7.71,7.71,0,0,1-.7,3.1l-.19.4.29.34c.18.2.34.41.5.62A9.45,9.45,0,0,1,87.65,56l-.47.34.25.53A7.76,7.76,0,0,1,82,67.74l-.57.12v.73a9.43,9.43,0,0,1-7.87,9.31L73,78V92l3.28,6.55a1,1,0,0,1-.89,1.44Zm.61-2h4.54l-2.39-4.77H66.82Zm-49,0h4.53l-2.38-4.77H17.81Zm46-6.76H71V78l-.58-.1a9.63,9.63,0,0,1-3.15-1.15l-1-.6Zm-49,0H22V77.85l-.51-.15a8.71,8.71,0,0,1-3.13-1.64l-1.13-.94Zm47.16-20a1,1,0,0,1,.9.56A7.51,7.51,0,0,0,72,76.05a7.46,7.46,0,0,0,7.45-7.46,8.46,8.46,0,0,0-.14-1.5.58.58,0,0,1,0-.23,1,1,0,0,1,1-1h.17a5.79,5.79,0,0,0,5.76-5.77,5.66,5.66,0,0,0-1.24-3.57l-.12-.2a1,1,0,0,1,.48-1.32,7.22,7.22,0,0,0,2.4-1.81A7.46,7.46,0,0,0,87,42.72a1,1,0,0,1-.16-1.3,5.75,5.75,0,0,0,1-3.24,5.75,5.75,0,0,0-5.76-5.77,11.35,11.35,0,0,0-1.82.29h0a1,1,0,0,1-.28,0,1,1,0,0,1-.34-.06,1,1,0,0,1-.56-.51,1,1,0,0,1,0-.76h0a9.31,9.31,0,0,0,.36-1.59,4.11,4.11,0,0,0-2-3.61l-.6-.35-.35.6-.27.44C74,30.26,69.12,31,65.45,31h-.1a25.34,25.34,0,0,1-3.69-.26,1,1,0,0,1-.5-.24,1,1,0,0,1-.07-1.4L76.3,12.16a1,1,0,0,1,.56-.31l.18,0a1,1,0,0,1,1,.81,29.73,29.73,0,0,1,.4,5v.47l.43.17a4.05,4.05,0,0,0,4.85-1.34,1,1,0,0,1,.36-.3,1,1,0,0,1,1.33.45,5.76,5.76,0,1,0,3.73-8.15,1.15,1.15,0,0,1-.26,0,1,1,0,0,1-1-1V7.75a4.07,4.07,0,0,0-7.2-2.61,1,1,0,0,1-.36.27.93.93,0,0,1-.4.09A1,1,0,0,1,79,4.91a4.89,4.89,0,0,0-3.23-2.75A5,5,0,0,0,74.5,2a4.91,4.91,0,0,0-4.75,3.66,1.11,1.11,0,0,1-.12.27,1,1,0,0,1-1.37.32,5.82,5.82,0,0,0-3.06-.88,5.77,5.77,0,0,0-3.77,10.13,1,1,0,0,1,.33.83,1,1,0,0,1-1,.91l-.63,0A5.78,5.78,0,0,0,54.37,23a6,6,0,0,0,0,.61,1,1,0,0,1-.08.52,1,1,0,0,1-.91.59.93.93,0,0,1-.4-.09A7.37,7.37,0,0,0,50,24a7.54,7.54,0,0,0-4.78,1.71,1,1,0,0,1-.63.23,1,1,0,0,1-.7-.28,5.86,5.86,0,0,0-4-1.67,5.79,5.79,0,0,0-5.55,4.2,1,1,0,0,1-.26.44,1,1,0,0,1-.7.28,1,1,0,0,1-.71-.3A4.62,4.62,0,0,0,32,28a4.1,4.1,0,0,0-5.65,1.15.83.83,0,0,1-.28.28,1,1,0,0,1-.54.17,1,1,0,0,1-.83-.45,4.07,4.07,0,0,0-2.26-1.66,4,4,0,0,0-1.14-.16,4.09,4.09,0,0,0-3.91,2.93,1,1,0,0,1-.95.72.87.87,0,0,1-.28,0,6,6,0,0,0-3.22,0A5.8,5.8,0,0,0,9,38.1a1,1,0,0,1-.67,1.23A4.08,4.08,0,0,0,6.05,45.5a1,1,0,0,1-.33,1.42A7.45,7.45,0,0,0,6.84,60.37a1,1,0,0,1,.32.19A1,1,0,0,1,7.24,62,7.45,7.45,0,0,0,17.05,73a1,1,0,0,1,.57-.18,1,1,0,0,1,.81.42,6.89,6.89,0,0,0,1,1.1,6.62,6.62,0,0,0,9.33-.56l.12-.12a1,1,0,0,1,.62-.21,1,1,0,0,1,.78.37,5.77,5.77,0,0,0,9.83-1.32,1.07,1.07,0,0,1,.32-.41,1,1,0,0,1,.59-.19,1,1,0,0,1,.8.41,5.27,5.27,0,0,0,.49.57,4.94,4.94,0,0,0,7,0,.4.4,0,0,1,.12-.1.94.94,0,0,1,.58-.19,1,1,0,0,1,.8.4,7.46,7.46,0,0,0,12.71-1.18,1,1,0,0,1,.46-.46A.94.94,0,0,1,64.36,71.28ZM78.2,21a20.57,20.57,0,0,1-.51,2.48l-.16.55.52.26a6,6,0,0,1,3.36,5.43v.7h.7a7.74,7.74,0,0,1,6.78,4l.11.19.19.1c1.81.92,4.44,2.15,6.27,2.15a2.59,2.59,0,0,0,1.36-.33c.79-.48,1.19-1.64,1.19-3.43a16.3,16.3,0,0,0-4.51-11l-.29-.33-.42.13a7.74,7.74,0,0,1-8.05-2.3l-.41-.46-.51.35a6,6,0,0,1-3.4,1A6.42,6.42,0,0,1,79,20.42l-.74-.18ZM63.83,29h1.56c3.22,0,7.39-.55,9.13-3.18s2-6.32,1.9-9l0-1.75Z"/></svg>