<?xml version="1.0" encoding="utf-8"?>
<!-- Generator: Adobe Illustrator 22.1.0, SVG Export Plug-In . SVG Version: 6.00 Build 0)  -->
<svg version="1.1" id="Layer_1" xmlns="http://www.w3.org/2000/svg" xmlns:xlink="http://www.w3.org/1999/xlink" x="0px" y="0px"
	 viewBox="0 0 100 100" style="enable-background:new 0 0 100 100;" xml:space="preserve">
<style type="text/css">
	.st0{fill:#CCB55F;}
</style>
<path class="st0" d="M95,26.8c-0.1-0.2-0.4-0.3-0.6-0.3H70.9l0.2-5.6C71.1,9.4,61.7,0,50.2,0c-11.6,0-21,9.4-21,20.9v5.6H5.6
	c-0.3,0-0.5,0.1-0.6,0.3c-0.2,0.3-0.3,0.6-0.3,0.8v0.1l7.7,71.5c0.1,0.5,0.5,0.9,1,0.9h73.2c0.5,0,1-0.4,1-0.9l7.7-71.4v-0.1
	C95.3,27.4,95.2,27.1,95,26.8z M31.3,20.9C31.3,10.5,39.8,2,50.2,2s18.9,8.5,18.9,19L69,26.6H31.2L31.3,20.9z M85.7,98.1H13.9
	L6.5,28.7h22.8v6.2l-0.9,0.3c-2.1,0.7-3.5,2.7-3.5,4.9c0,2.9,2.3,5.2,5.2,5.2s5.2-2.3,5.2-5.2c0-2.2-1.4-4.2-3.5-4.9L31,34.9
	l0.1-6.1h37.8L68.8,35L68,35.2c-2.1,0.7-3.5,2.7-3.5,4.9c0,2.9,2.3,5.2,5.2,5.2c2.9,0,5.2-2.3,5.2-5.2c0-2.2-1.4-4.2-3.5-4.9
	l-0.9-0.3l0.2-6.1H93L85.7,98.1z M30.3,36.9c1.9,0,3.3,1.5,3.3,3.3c0,1.9-1.5,3.3-3.3,3.3c-1.9,0-3.3-1.5-3.3-3.3
	C26.9,38.4,28.4,36.9,30.3,36.9z M69.7,36.8c1.9,0,3.3,1.5,3.3,3.3c0,1.9-1.5,3.3-3.3,3.3s-3.3-1.5-3.3-3.3
	C66.4,38.2,67.9,36.8,69.7,36.8z"/>
</svg>
