<?xml version="1.0" encoding="utf-8"?>
<!-- Generator: Adobe Illustrator 22.1.0, SVG Export Plug-In . SVG Version: 6.00 Build 0)  -->
<svg version="1.1" id="Layer_1" xmlns="http://www.w3.org/2000/svg" xmlns:xlink="http://www.w3.org/1999/xlink" x="0px" y="0px"
	 viewBox="0 0 100 100" style="enable-background:new 0 0 100 100;" xml:space="preserve">
<style type="text/css">
	.st0{fill:#CCB55F;}
</style>
<path class="st0" d="M93.9,76.4c-0.5,0-0.9-0.4-1-0.9l-1.5-9.3H8.7l-1.5,9.3c-0.1,0.5-0.5,0.9-1,0.9H1c-0.6,0-1-0.5-1-1V31.6
	c0-0.6,0.5-1,1-1h6.8c0.6,0,1,0.5,1,1v5.5h45.4v-0.7c0-1.5,1.2-2.7,2.7-2.7h6.8c1.1,0,2,0.6,2.5,1.6l0.4,0.8l0.7-0.6
	c2.5-2.3,6.4-3.5,11.5-3.5c5,0,8.8,1.1,11.4,3.4l1.1,1V24.7c0-0.6,0.5-1,1-1H99c0.6,0,1,0.5,1,1v50.7c0,0.6-0.5,1-1,1H93.9z
	 M93.2,65.1l1.5,9.2h3.2V25.7h-4.7V65.1z M2.1,74.3h3.2l1.5-9.2V32.7H2.1V74.3z M8.8,64.2h82.4V52.7H8.8V64.2z M66.4,50.7h24.8v-8.1
	H66.4V50.7z M56.3,50.7h8.1V35.8h-8.1C56.3,35.8,56.3,50.7,56.3,50.7z M8.8,50.7h45.4V39.2H8.8V50.7z M78.7,34.1
	c-8.4,0-11.1,3.4-12,5.5l-0.4,0.9h24.8l-0.4-0.9C89.8,37.6,87.1,34.1,78.7,34.1z"/>
</svg>
