<svg id="Layer_1" data-name="Layer 1" xmlns="http://www.w3.org/2000/svg" viewBox="0 0 100 100"><defs><style>.cls-1,.cls-2{fill:none;stroke-linecap:round;stroke-width:2px;}.cls-1{stroke:#cdb55e;stroke-linejoin:round;}.cls-2{stroke:#ccb55f;stroke-miterlimit:10;}</style></defs><title>stag-2</title><path class="cls-1" d="M50,99c6,0,8.69-3.16,8.69-5.51s-1-2.23,0-5S64.22,78,66.6,73.3s.32-5.76.32-5.76,5.47.81,7.91-3.53,4.15-7.72,5.4-9.12.92-1.78-1.06-1.78a22.5,22.5,0,0,0-10.6,4c-3,2.41-3.42,3.28-3.42,3.28s.66-3.41-1.58-4.34-3-1.17-4.94-1.85a5,5,0,0,0-4.68.66A5.73,5.73,0,0,1,50,56a5.73,5.73,0,0,1-4-1.13,5,5,0,0,0-4.68-.66c-1.91.68-2.7.93-4.94,1.85s-1.58,4.34-1.58,4.34-.46-.87-3.42-3.28a22.5,22.5,0,0,0-10.6-4c-2,0-2.31.37-1.06,1.78s3,4.79,5.4,9.12,7.91,3.53,7.91,3.53-2,1,.32,5.76,6.92,12.51,7.91,15.23,0,2.61,0,5S44,99,50,99Z"/><path class="cls-2" d="M60.69,55c3-4,10.6-7.83,16.18-9.89,6.06-2.24,12.68-4.83,17.78-13.44A32.47,32.47,0,0,0,95.64,1"/><path class="cls-2" d="M88.82,12.61c7.13,9,7.51,19.27,1.51,24.68"/><path class="cls-2" d="M77.46,25.9C81,32.52,79.68,43.44,73,46.67"/><path class="cls-2" d="M63.74,39.17c.75,6.82.79,10.15-3.05,15.79"/><path class="cls-2" d="M39.31,55c-3-4-10.6-7.83-16.18-9.89-6.06-2.24-12.68-4.83-17.78-13.44A32.47,32.47,0,0,1,4.36,1"/><path class="cls-2" d="M11.18,12.61c-7.13,9-7.51,19.27-1.51,24.68"/><path class="cls-2" d="M22.54,25.9C19,32.52,20.32,43.44,27,46.67"/><path class="cls-2" d="M36.26,39.17C35.51,46,35.47,49.32,39.31,55"/></svg>