<?xml version="1.0" encoding="utf-8"?>
<!-- Generator: Adobe Illustrator 22.1.0, SVG Export Plug-In . SVG Version: 6.00 Build 0)  -->
<svg version="1.1" id="Layer_1" xmlns="http://www.w3.org/2000/svg" xmlns:xlink="http://www.w3.org/1999/xlink" x="0px" y="0px"
	 viewBox="0 0 100 100" style="enable-background:new 0 0 100 100;" xml:space="preserve">
<style type="text/css">
	.st0{fill:#CCB55F;}
</style>
<path class="st0" d="M94.3,3.5c0.9,0,1.8,0.3,2.5,0.9C97.6,5.1,98,6.1,98,7.2v17.2c0,3.4-2.8,6.2-6.2,6.2H68.7c-1.6,0-3.1,0.8-4,2.2
	L63.3,35l-1.2,1.9l2,1c2,1,3.8,2.5,5.1,4.3l0.6,0.8h1h10.7c-0.2,4.4-3.5,8.2-8,8.9l-1.7,0.3v1.7v0.2c0,8.1-3.3,14.5-10.6,20.6
	l-2.5,2.1L58,77.3v0.8l-0.9,11.7c-0.3,3.8-3.5,6.7-7.4,6.7s-7-2.9-7.4-6.7l-0.8-11.2l-0.1-0.8l-0.6-0.5l-3.1-2.8
	C31,68.5,28,62.4,28,54.8v-1v-1.7l-1.7-0.3c-4.4-0.6-7.8-4.4-8-8.9H29h1l0.6-0.8c1.3-1.8,3.1-3.3,5.1-4.3l2-1l-1.2-1.9l-1.4-2.2
	c-0.9-1.4-2.4-2.2-4-2.2H8.2c-3.4,0-6.2-2.8-6.2-6.2V7.2c0-1,0.4-2,1.2-2.7c0.7-0.7,1.6-1,2.5-1c0.1,0,0.2,0,0.4,0
	c1.8,0.2,3.3,1.9,3.3,3.9V19c0,2.3,1.9,4.3,4.3,4.3h2.7h2v-2v-8.8c0-2,1.5-3.8,3.4-4c0.1,0,0.3,0,0.4,0c0.9,0,1.8,0.3,2.5,1
	c0.8,0.7,1.2,1.7,1.2,2.8v9v2h2h6c2.4,0,4.7,1.3,6,3.4l5.2,8.8l0.6,1h1.1h6.6h1.1l0.6-1l5.2-8.8c1.2-2.1,3.5-3.4,6-3.4h6h2v-2v-9
	c0-1.1,0.5-2.1,1.2-2.8c0.7-0.6,1.6-1,2.5-1c0.1,0,0.3,0,0.4,0c1.9,0.2,3.4,1.9,3.4,4v8.8v2h2h2.7c2.3,0,4.3-1.9,4.3-4.3V7.4
	c0-2,1.4-3.7,3.3-3.9C94.1,3.5,94.2,3.5,94.3,3.5 M94.3,1.5c-0.2,0-0.4,0-0.6,0c-2.9,0.3-5.1,2.9-5.1,5.9V19c0,1.2-1,2.3-2.3,2.3
	h-2.7v-8.8c0-3.1-2.3-5.7-5.2-6c-0.2,0-0.4,0-0.6,0C76.4,6.5,75,7,73.9,8c-1.2,1.1-1.9,2.6-1.9,4.3v9h-6c-3.1,0-6.1,1.7-7.7,4.4
	l-5.2,8.8h-6.6l-5.2-8.8c-1.6-2.7-4.6-4.4-7.7-4.4h-6v-9c0-1.6-0.7-3.2-1.9-4.3c-1.1-1-2.4-1.5-3.9-1.5c-0.2,0-0.4,0-0.6,0
	c-2.9,0.3-5.2,2.9-5.2,6v8.8h-2.7c-1.2,0-2.3-1-2.3-2.3V7.4c0-3-2.2-5.6-5.1-5.9c0.2,0,0,0-0.2,0C4.3,1.5,2.9,2,1.9,3
	C0.7,4,0,5.6,0,7.2v17.2c0,4.5,3.7,8.2,8.2,8.2h23.1c0.9,0,1.8,0.5,2.3,1.3l1.4,2.2c-2.3,1.2-4.4,2.9-5.9,5h-11
	c-0.9,0-1.6,0.7-1.6,1.6c0,5.7,4.2,10.4,9.7,11.2v1c0,8.8,3.8,15.3,10.3,21.2l3.1,2.8l0.8,11.2c0.4,4.9,4.5,8.6,9.4,8.6
	s8.9-3.7,9.4-8.6L60,78.2l2.5-2.1c7.2-6,11.3-12.8,11.3-22.1v-0.2c5.5-0.8,9.7-5.5,9.7-11.2c0-0.9-0.7-1.6-1.6-1.6h-11
	c-1.5-2.1-3.5-3.8-5.9-5l1.4-2.2c0.5-0.8,1.4-1.3,2.3-1.3h23.1c4.5,0,8.2-3.7,8.2-8.2V7.2c0-1.6-0.7-3.1-1.9-4.2
	C97.1,2,95.7,1.5,94.3,1.5L94.3,1.5z"/>
</svg>
