<?xml version="1.0" encoding="utf-8"?>
<!-- Generator: Adobe Illustrator 22.1.0, SVG Export Plug-In . SVG Version: 6.00 Build 0)  -->
<svg version="1.1" id="Layer_1" xmlns="http://www.w3.org/2000/svg" xmlns:xlink="http://www.w3.org/1999/xlink" x="0px" y="0px"
	 viewBox="0 0 100 100" style="enable-background:new 0 0 100 100;" xml:space="preserve">
<style type="text/css">
	.st0{fill:#CCB55F;}
</style>
<g>
	<path class="st0" d="M80.8,55.6L80.8,55.6L80.8,55.6z"/>
	<path class="st0" d="M70.6,51.4c0.1,0.1,0.3,0.3,0.3,0.4c0.2,0.1,0.3,0.2,0.5,0.3c2.6,2.2,5.9,3.5,9.4,3.5c1.7,0,3.3-0.3,4.9-0.8
		c3.7-1.3,6.7-4,8.4-7.5c1.7-3.5,1.9-7.5,0.6-11.2c-1.7-5-5.9-8.7-11.1-9.6c-0.9-0.2-1.8-0.3-2.7-0.3c-4.3,0-8.3,1.9-11.1,5.1
		c-3.4,4-4.4,9.6-2.6,14.5C67.8,47.9,69.1,49.8,70.6,51.4z M69.4,35.5c1.5-3,4.1-5.3,7.2-6.4c1.4-0.5,2.8-0.7,4.3-0.7
		c5.3,0,9.9,3.3,11.8,8.5c1.1,3.1,0.9,6.6-0.5,9.6c-2.1,4.4-6.5,7.2-11.4,7.2c-0.2,0-0.5,0-0.7,0C75,53.3,70.6,50,69,45.2
		C67.8,42,68,38.5,69.4,35.5z"/>
	<path class="st0" d="M98.9,64c-6.4,0-9.7,2-12.8,4c-1.4,0.9-2.7,1.7-4.3,2.4c-5.5-5-9.2-8.4-10.8-9.9c0,0-2.7-2.5-3.9-3.6
		c-0.2-0.2-0.3-0.3-0.4-0.5c-0.2-0.1-0.4-0.3-0.5-0.4c-2.1-2-4.1-3.7-6.2-5.6c-6.6-5.9-13.2-11.8-18.9-16.9c-1.5-1.4-3.1-2-4.8-2
		c-0.5,0-1.1,0.1-1.6,0.2c-3.8,0.8-7.6,1.6-11.4,2.4l-0.9,0.2c-4,0.9-8.1,1.7-12.2,2.6c-3.8,0.8-6.3,4.7-5.5,8.6
		c0.6,3.3,3.5,5.7,6.8,5.7c0.4,0,0.8,0,1.2-0.1c5.8-1.1,11.7-2.3,17.6-3.8c0.6-0.2,1.3-0.3,1.9-0.3c0.1,0,0.1,0,0.2,0
		c0.9,0,1.7,0.4,2.3,1c0.2,0.2,0.4,0.5,0.6,0.7c1,1.3,2,2.6,3.1,3.8c0.8,0.9,1.2,2.1,1.1,3.3c-0.1,1.2-0.8,2.4-1.8,3.1L20.4,71.1
		c-2.7-0.7-4.6-1.9-6.6-3.1c-3.1-2-6.4-4-12.8-4c-0.5,0-1,0.5-1,1.1c0,0.3,0.1,0.6,0.3,0.8c0.2,0.2,0.5,0.3,0.8,0.3
		c5.8,0,8.7,1.8,11.7,3.7c3.1,2,6.4,4,12.8,4s9.7-2,12.8-4c3-1.9,5.9-3.7,11.7-3.7s8.7,1.8,11.7,3.7c3.1,2,6.4,4,12.8,4
		s9.7-2,12.8-4c3-1.9,5.9-3.7,11.7-3.7c0.6,0,1.1-0.5,1.1-1.1C100,64.5,99.5,64,98.9,64z M74.5,71.7c-5.8,0-8.7-1.8-11.7-3.7
		c-3.1-2-6.4-4-12.8-4s-9.7,2-12.8,4c-3,1.9-5.9,3.7-11.7,3.7c-0.8,0-1.6,0-2.3-0.1L39,60.5c1.5-1,2.4-2.6,2.6-4.4
		c0.2-1.8-0.4-3.5-1.6-4.8c-1.1-1.2-2.1-2.4-3-3.6c-1.2-1.7-2.7-2.5-4.6-2.5c-1,0-1.8,0.2-2.5,0.4C24,47,18.1,48.3,12.2,49.4
		c-0.2,0-0.5,0-0.7,0c-2.3,0-4.4-1.6-4.8-3.8c-0.4-1.4-0.2-2.9,0.6-4.1c0.7-1.2,2-2.1,3.3-2.4c4.4-1,8.8-1.9,13.1-2.8
		c3.8-0.8,7.6-1.6,11.4-2.4c0.3-0.1,0.7-0.1,1.2-0.1c1.6,0,2.8,0.9,3.5,1.5c6,5.4,12.4,11.2,18.9,16.9c4.7,4.1,7.9,7.1,10.8,9.8
		l10.2,9.3C78.2,71.5,76.5,71.7,74.5,71.7z"/>
</g>
</svg>
