<svg id="Layer_1" data-name="Layer 1" xmlns="http://www.w3.org/2000/svg" viewBox="0 0 100 100"><defs><style>.cls-1{fill:#ccb55f;}</style></defs><title>sheep</title><path class="cls-1" d="M86.64,100a6,6,0,0,1-4.31-1.8L78.08,94l-.46.27a12.6,12.6,0,0,1-6.37,1.72,13.92,13.92,0,0,1-1.93-.14l-35.6-5.31-.24.41a17.89,17.89,0,0,1-11.71,8.66A17.86,17.86,0,0,1,.43,86,17.92,17.92,0,0,1,14,64.61l1-.22-.6-.84a6.3,6.3,0,0,0-3.53-2.45,1,1,0,0,1,.25-2,.85.85,0,0,1,.23,0A8.63,8.63,0,0,1,17,63.83l.19.37h.73a18.32,18.32,0,0,1,3.14.27l.87.16L20.75,50.54l-.84.32a15.12,15.12,0,0,1-5.2.93A14.58,14.58,0,0,1,0,37.38,14.43,14.43,0,0,1,12.35,23.16l.84-.14-.31-.79a16,16,0,0,1-1.13-5.91A16.51,16.51,0,0,1,28.4,0,16.87,16.87,0,0,1,40.46,5.07l.33.34.43-.19A17,17,0,0,1,48,3.83,16.51,16.51,0,0,1,64.61,20.15a16.22,16.22,0,0,1-.18,2.42l-.1.63.63.14a14.37,14.37,0,0,1,11.39,14,14.58,14.58,0,0,1-14.7,14.41,15,15,0,0,1-8.29-2.52l-1-.65L50.63,69.83,69.32,67a13.78,13.78,0,0,1,1.92-.14,12.86,12.86,0,0,1,5.58,1.29l.44.22L81.68,64a6.07,6.07,0,0,1,8.58,8.59L87.5,75.35h6.42a6.08,6.08,0,1,1,0,12.15H88.8l2.12,2.11A6.09,6.09,0,0,1,92.71,94a6,6,0,0,1-1.79,4.29A6.08,6.08,0,0,1,86.64,100Zm-2.8-13.24a14.59,14.59,0,0,1-3.61,5.51l-.51.48,4,4a4.06,4.06,0,0,0,5.53.2h0l.21-.2a4.06,4.06,0,0,0,0-5.74l-5.28-5.29ZM4.67,73.33a15.88,15.88,0,1,0,26.49,0L30.92,73l-.42,0a10.12,10.12,0,0,0-1.62.33,5.57,5.57,0,0,0-2.95,1.83l-.19.26,1.59,6.39a.94.94,0,0,1,0,.62,1,1,0,0,1-.93.63A1,1,0,0,1,26,83l-8.07-3.23L9.84,83A1,1,0,0,1,8.6,82.6a1,1,0,0,1-.11-.76l1.6-6.39-.2-.26c-1.16-1.53-3.36-2-4.57-2.16L4.9,73ZM56.76,76a1,1,0,0,1,1,1V92l11.85,1.77a10.77,10.77,0,0,0,1.6.12,10.88,10.88,0,0,0,7.21-2.74,13.14,13.14,0,0,0,0-19.54A11.1,11.1,0,0,0,72,68.94l-.74,0v20a1,1,0,1,1-2,0V69.09l-25,3.73V85.46a1,1,0,1,1-2,0V73.12l-8.17,1.22.34.81a17.88,17.88,0,0,1,.46,12.66l-.26.78,21.15,3.15V77A1,1,0,0,1,56.76,76Zm27.73,2.34.06.36a15.39,15.39,0,0,1,.16,4.34l0,.32,2.12,2.11h7.13a4.06,4.06,0,0,0,0-8.12H85.48ZM17.91,77.7a.94.94,0,0,1,.37.07l6.62,2.65-1.21-4.85a1,1,0,0,1,.08-.69,6.94,6.94,0,0,1,4.5-3.43l1.16-.35-.89-.81a15.82,15.82,0,0,0-9.6-4.05l-1-.06.24.91A21.11,21.11,0,0,1,18.92,72a1,1,0,0,1-2,0,19.18,19.18,0,0,0-.82-5.06l-.17-.57-.59.09a15.8,15.8,0,0,0-8,3.88l-.9.81,1.16.35a6.94,6.94,0,0,1,4.5,3.43,1,1,0,0,1,.08.69l-1.21,4.85,6.62-2.65A.94.94,0,0,1,17.91,77.7ZM86,64.22a4,4,0,0,0-2.87,1.19L79,69.51l.66.55a14.62,14.62,0,0,1,3.83,5.14l.4.91,5-5A4.06,4.06,0,0,0,86,64.22Zm-62,1,.4.16a18,18,0,0,1,8.37,6.7l.24.36,15.58-2.32,1.48-17.73L48.7,53.92A16.53,16.53,0,0,1,43,58l-.36.16.58-1.44c0,.06-.65,1.94-.67,2L40.8,63.9a1,1,0,0,1-.95.66,1,1,0,0,1-.34-.06,1,1,0,0,1-.57-.52,1.05,1.05,0,0,1,0-.78L40.32,59l-1.13.2a17.44,17.44,0,0,1-3,.26,17.9,17.9,0,0,1-2.42-.17l-1.09-.16,1.36,4.08A1,1,0,0,1,34,64a1,1,0,0,1-.59.49,1.45,1.45,0,0,1-.29,0,1,1,0,0,1-1-.72l-2-6L31.86,59l-1.74-.7a16.52,16.52,0,0,1-5.81-3.79L23,53.21ZM21.73,47.88a1,1,0,0,1,.93.62,14.74,14.74,0,0,0,27.87-2.33,1,1,0,0,1,.3-.52,1,1,0,0,1,.68-.27,1,1,0,0,1,.74.32,12.88,12.88,0,0,0,9.38,4.07A12.38,12.38,0,0,0,63,25.05l-.16,0a1,1,0,0,1-.71-1.24,14,14,0,0,0,.48-3.64A14.5,14.5,0,0,0,48,5.84a15,15,0,0,0-7,1.71.94.94,0,0,1-.47.12,1,1,0,0,1-.77-.36A14.68,14.68,0,0,0,28.46,2a14.51,14.51,0,0,0-14.7,14.31,14.06,14.06,0,0,0,2,7.15,1,1,0,0,1,.14.52,1,1,0,0,1-1,1h-.13a12.39,12.39,0,1,0,0,24.78A13,13,0,0,0,21.22,48a.67.67,0,0,1,.12-.06A.91.91,0,0,1,21.73,47.88Z"/></svg>