<?xml version="1.0" encoding="utf-8"?>
<!-- Generator: Adobe Illustrator 22.1.0, SVG Export Plug-In . SVG Version: 6.00 Build 0)  -->
<svg version="1.1" id="Layer_1" xmlns="http://www.w3.org/2000/svg" xmlns:xlink="http://www.w3.org/1999/xlink" x="0px" y="0px"
	 viewBox="0 0 100 100" style="enable-background:new 0 0 100 100;" xml:space="preserve">
<style type="text/css">
	.st0{fill:#CCB55F;}
</style>
<path class="st0" d="M76.2,20.2C90,23.3,100,35.8,100,50c0,16.9-13.7,30.6-30.6,30.6c-6.9,0-13.7-2.4-19.1-6.7L50,73.7l-0.3,0.2
	c-5.4,4.3-12.2,6.7-19.1,6.7C13.7,80.6,0,66.9,0,50c0-14.2,10-26.7,23.8-29.8l0,0c0.6-0.1,1.1-0.2,1.6-0.3c0.7-0.1,1.2-0.2,1.8-0.3
	c1.2-0.1,2.3-0.2,3.4-0.2c1,0,2.1,0.1,3.2,0.2H34c5.7,0.6,11.2,2.9,15.7,6.5l0.3,0.2l0.3-0.2c4.5-3.6,10-5.9,15.7-6.5h0.1
	c1.2-0.1,2.3-0.2,3.3-0.2c1.1,0,2.2,0.1,3.3,0.2c0.6,0.1,1.2,0.2,1.8,0.2C75.1,19.9,75.6,20,76.2,20.2L76.2,20.2z M45.4,34.6
	c-3,4.6-4.5,9.9-4.5,15.4c0,6.1,1.9,11.9,5.5,16.8c1.3,1.7,2.7,3.3,4.3,4.7c5.2,4.5,11.8,7,18.7,7c15.7,0,28.5-12.8,28.5-28.5
	S85.1,21.5,69.4,21.5c-6.3,0-12.4,2.1-17.4,5.9l-0.4,0.3c0,0,0.8,0.8,1,1l0.6,0.6l0.6,0.7c0,0,0.5,0.5,0.6,0.7l0.3,0.3l0.4-0.2
	c4.1-3.1,9.2-4.8,14.4-4.8c13.2,0,24,10.8,24,24s-10.8,24-24,24c-5.1,0-10.2-1.7-14.3-4.8l-0.4-0.3l0,0l-0.9-0.7
	c-1.8-1.6-3.4-3.4-4.7-5.4l-0.4-0.6L48.6,62c-2.1-3.6-3.2-7.8-3.2-12s1.1-8.4,3.2-12l0.1-0.2l-0.2-0.3c-0.2-0.2-0.3-0.4-0.4-0.6
	l-0.2-0.3c-0.1-0.2-0.2-0.3-0.4-0.5l-0.2-0.3c-0.1-0.2-0.6-0.7-0.6-0.7c-0.2-0.2-0.3-0.3-0.5-0.5l-0.5-0.5L45.4,34.6z M30.6,21.5
	C14.9,21.5,2.1,34.3,2.1,50s12.8,28.5,28.5,28.5c6.3,0,12.4-2.1,17.4-5.9l0.4-0.3L48,71.9c-0.2-0.2-0.4-0.4-0.5-0.5
	c0,0-0.5-0.5-0.6-0.6L46.2,70l-0.8-1L45,69.2c-4.1,3.1-9.2,4.8-14.4,4.8c-13.2,0-24-10.8-24-24s10.8-24,24-24
	c5.1,0,10.2,1.7,14.3,4.8l0.4,0.3l0,0l0.9,0.7c0.5,0.4,0.9,0.8,1.3,1.2c1.3,1.3,2.4,2.7,3.4,4.2l0.4,0.6l0.1,0.2
	c2.1,3.6,3.2,7.8,3.2,12s-1.1,8.4-3.2,12l-0.1,0.2l0.2,0.3c0.2,0.2,0.3,0.4,0.4,0.6c0,0,0.4,0.6,0.6,0.7l0.2,0.3
	c0.1,0.2,0.3,0.3,0.4,0.4l0.2,0.2c0.2,0.2,0.3,0.3,0.5,0.5l0.5,0.5l0.3-0.5c3-4.6,4.5-9.9,4.5-15.4c0-6.1-1.9-11.9-5.5-16.8
	c-1.3-1.7-2.7-3.3-4.3-4.7C44.1,24,37.5,21.5,30.6,21.5z M30.6,28.1C18.5,28.1,8.7,37.9,8.7,50s9.8,21.9,21.9,21.9
	c4.7,0,9.4-1.6,13.1-4.4l0.3-0.3l-0.2-0.4c-3.3-5-5.1-10.8-5.1-16.9S40.5,38,43.8,33l0.2-0.4l-0.3-0.3C40,29.7,35.3,28.1,30.6,28.1z
	 M69.4,28.1c-4.7,0-9.4,1.6-13.1,4.4L56,32.8l0.2,0.4c3.3,5,5.1,10.8,5.1,16.9S59.5,62,56.2,67L56,67.4l0.3,0.3
	c3.8,2.8,8.4,4.4,13.1,4.4c12.1,0,21.9-9.8,21.9-21.9S81.5,28.1,69.4,28.1z M49.6,40.6c-1.4,2.9-2.1,6.1-2.1,9.4
	c0,3.3,0.7,6.4,2.1,9.4l0.4,0.9l0.4-0.9c1.4-2.9,2.1-6.1,2.1-9.4s-0.7-6.4-2.1-9.4L50,39.8L49.6,40.6z"/>
</svg>
