<?xml version="1.0" encoding="utf-8"?>
<!-- Generator: Adobe Illustrator 22.1.0, SVG Export Plug-In . SVG Version: 6.00 Build 0)  -->
<svg version="1.1" id="Layer_1" xmlns="http://www.w3.org/2000/svg" xmlns:xlink="http://www.w3.org/1999/xlink" x="0px" y="0px"
	 viewBox="0 0 377 492.9" style="enable-background:new 0 0 377 492.9;" xml:space="preserve">
<g>
	<path d="M12.5,234.4c7.5,4.4,17.1,6.2,26.6,6.2c9.6,0,19.3-1.7,28.8-4.3c4.7-1.3,9.4-2.8,14.1-4.6c2.3-0.9,4.6-1.8,6.9-2.7l6.9-2.8
		l6.8-2.9l3.4-1.5l3.4-1.5l6.8-3.1l6.7-3.2c8.9-4.4,17.7-8.9,26.2-14c8.6-5,17-10.3,25.1-16c8.1-5.7,15.9-11.8,23.2-18.5
		c1.8-1.7,3.6-3.4,5.4-5.1c1.7-1.8,3.5-3.5,5.1-5.3c3.3-3.7,6.5-7.5,9.4-11.4c5.9-7.9,11.2-16.3,15.9-25c4.6-8.7,8.7-17.7,11.7-27.1
		c1.4-4.7,2.7-9.4,2.9-14.2c0.1-2.3-0.1-4.7-0.8-6.7c-0.3-1-0.8-1.8-1.4-2.4c-0.5-0.6-1.1-0.8-1.8-0.9c-1.5-0.2-2.7,0.2-4,1.3
		c-1.3,1.1-2.6,2.7-3.7,4.5c-1.2,1.8-2.3,3.8-3.3,5.9c-1.1,2.1-2.1,4.2-3,6.4c-3.8,8.7-6.7,18.1-9.4,27.5c-2.6,9.4-5,19-7.2,28.6
		l-3.2,14.5l-1.6,7.3l-0.8,3.6l-0.9,3.7c-2.4,9.8-5.1,19.4-7.9,29c-5.6,19.1-11.5,38.1-17.7,57c-6.2,18.9-12.5,37.8-19.3,56.5
		c-3.4,9.4-6.9,18.7-10.7,28c-3.9,9.4-8.1,18.4-12.5,27.4c-8.7,18-17.9,35.7-27.8,53c-2.5,4.3-5,8.6-7.6,12.9
		c-2.6,4.3-5.2,8.5-8,12.7c-2.8,4.2-5.6,8.4-8.6,12.5c-3,4.1-6.1,8.1-9.6,12c-3.5,3.8-7.2,7.5-11.4,10.8c-4.2,3.2-8.8,6.1-14,8.1
		c-5.2,1.9-11.1,2.8-16.8,1.6c-2.8-0.6-5.6-1.7-8-3.1c-1.2-0.7-2.4-1.5-3.5-2.4c-0.5-0.4-1.1-0.9-1.6-1.4c-0.5-0.5-1-1-1.5-1.6
		c-2-2.2-3.3-5-4.1-7.7c-0.8-2.7-1-5.5-1-8.1c0.1-5.3,1.2-10.4,2.7-15.3c3-9.7,7.5-18.8,12.5-27.5c5-8.7,10.9-16.8,17-24.7
		c6.1-7.9,12.6-15.4,19.1-22.9c26.5-29.7,55.4-57.1,85.4-83.1c15-13,29.9-26.1,44.5-39.5c7.3-6.7,14.6-13.4,21.9-20.2
		c7.2-6.8,14.4-13.6,21.6-20.5c14.3-13.8,28.4-27.7,42.2-42c13.8-14.2,27.3-28.8,40.3-43.8c6.4-7.5,12.7-15.2,18.7-23.1
		c6-7.9,11.5-16,16.4-24.6c2.4-4.3,4.7-8.6,6.8-13.1c2-4.5,3.9-9,5.3-13.7c1.5-4.7,2.6-9.4,3.2-14.2c0.2-1.2,0.2-2.4,0.4-3.6
		c0-1.2,0.2-2.4,0.1-3.6c0-2.4-0.2-4.8-0.7-7.1c-0.9-4.6-2.8-9-5.8-12.3c-3-3.3-7-5.4-11.1-5.8c-4-0.4-7.8,0.9-11.3,3.3
		c-3.5,2.4-6.7,5.6-9.7,9.1c-6,7.1-10.9,15.4-15.4,24c-4.5,8.6-8.4,17.6-12.2,26.7c-3.7,9.1-7.3,18.3-10.6,27.6
		c-3.3,9.2-6.6,18.6-9.8,28c-6.4,18.8-12.6,37.6-18.8,56.4l-18.7,56.5l-9.3,28.3l-2.3,7.1c-0.8,2.4-1.6,4.7-2.3,7
		c-1.5,4.6-2.8,9.4-4.3,14.2c-2.8,9.5-5.7,19.1-9.1,28.6c-3.4,9.5-7.2,18.9-11.9,28.1c-4.7,9.1-10.4,18.1-18.4,25.2
		c-4,3.5-8.7,6.5-13.8,8.4c-5.1,1.9-10.7,2.5-15.8,1.7c-0.8-0.1-1.4-0.9-1.3-1.7c0.1-0.7,0.6-1.1,1.2-1.3l0,0
		c4.8-0.8,9.1-2.4,13-4.7c3.9-2.3,7.3-5.3,10.4-8.7c3.1-3.4,5.9-7.1,8.4-11.1c2.6-3.9,4.9-8.1,7-12.4c4.3-8.6,7.8-17.7,10.9-26.9
		c3.1-9.3,5.9-18.7,8.5-28.2c1.3-4.8,2.7-9.6,4.1-14.4l4.5-14.3l9.1-28.4c6.1-18.9,12.3-37.8,18.5-56.6
		c6.3-18.8,12.6-37.7,19.2-56.5c3.3-9.4,6.6-18.8,10.1-28.1c3.5-9.4,7.2-18.6,11.2-27.8c3.9-9.2,8.2-18.4,12.9-27.3
		c2.4-4.5,4.9-8.9,7.7-13.2c2.8-4.3,5.8-8.6,9.4-12.5c3.6-3.9,7.6-7.6,12.7-10.3c2.5-1.3,5.3-2.4,8.3-2.8c1.5-0.2,3-0.3,4.5-0.3
		c1.5,0.1,3,0.3,4.4,0.7c2.9,0.7,5.5,2,7.8,3.7c2.3,1.7,4.3,3.7,5.9,6c3.2,4.5,4.8,9.7,5.5,14.9c1.4,10.3-0.5,20.6-3.6,30.1
		c-1.6,4.8-3.5,9.4-5.6,14c-2.1,4.5-4.5,8.9-7,13.3c-5.1,8.6-10.8,16.9-16.9,24.7c-6.1,7.9-12.5,15.5-19,23
		c-26.3,29.8-54.4,58-83.1,85.4c-7.2,6.9-14.4,13.7-21.7,20.4c-7.2,6.8-14.5,13.5-21.9,20.2c-14.6,13.4-29.5,26.6-44.5,39.7
		c-15,13-29.6,26.4-43.7,40.3c-14.1,13.9-27.8,28.2-40.9,43.2c-6.5,7.5-12.8,15.1-18.8,22.9c-6,7.9-11.7,15.9-16.5,24.5
		c-4.8,8.6-8.8,17.7-11.1,27.1c-1.1,4.7-1.9,9.5-1.6,14.1c0.2,4.6,1.6,8.9,4.5,11.7c0.7,0.6,1.6,1.4,2.5,2c0.9,0.6,1.8,1.2,2.8,1.6
		c1.9,0.9,3.9,1.6,6,1.8c4.1,0.6,8.4-0.4,12.4-2.1c4-1.8,7.8-4.4,11.3-7.4c3.5-3,6.8-6.4,9.8-10.1c6.1-7.2,11.5-15.5,16.7-23.7
		c5.2-8.3,10.2-16.8,15.1-25.3c9.8-17.1,19-34.6,27.7-52.3c4.3-8.9,8.6-17.8,12.2-26.8c3.6-9.1,7.1-18.3,10.4-27.7
		c6.6-18.6,12.9-37.4,18.9-56.3c6-18.9,11.8-37.8,17.3-56.8l2-7.1l2-7.1c0.7-2.4,1.3-4.7,1.9-7.1l0.9-3.6l0.9-3.5l0.9-3.5l0.8-3.6
		l1.6-7.3c1.1-4.9,2.2-9.7,3.4-14.6c2.4-9.7,4.8-19.4,7.7-29c2.9-9.6,6.1-19.2,10.3-28.6c2.1-4.7,4.6-9.4,8.3-13.7
		c1.8-2.1,4-4.2,7-5.7c1.5-0.7,3.2-1.3,5-1.4c0.9-0.1,1.8,0,2.7,0.2c0.8,0.2,1.7,0.4,2.5,0.8c1.7,0.8,3.1,2.1,4,3.6
		c0.9,1.5,1.3,3,1.5,4.4c0.4,2.9,0.2,5.5-0.1,8.1c-0.7,5.1-2,10-3.7,14.8c-3.3,9.5-7.6,18.6-12.5,27.3c-4.9,8.7-10.5,17-16.6,24.9
		c-3.1,3.9-6.3,7.7-9.7,11.4c-1.7,1.8-3.5,3.5-5.3,5.3c-1.8,1.7-3.6,3.4-5.5,5.1c-7.5,6.6-15.3,12.7-23.4,18.5
		c-16.3,11.4-33.4,21.5-51.1,30.7l-6.6,3.4l-6.7,3.3l-3.4,1.6l-3.4,1.6l-6.8,3.1c-4.6,2-9.1,4-13.7,6c-4.6,1.9-9.2,3.8-14,5.5
		c-9.4,3.5-19.1,6.5-29.2,8.5c-10.2,2-20.9,2.8-32.3,1.3l-0.4-0.1c-4.6-0.6-7.7-4.8-7.1-9.4c0.6-4.6,4.8-7.7,9.4-7.1
		C10.6,233.5,11.6,233.9,12.5,234.4z"/>
	<path d="M237.8,276.1c-0.5,0-1-0.3-1.3-0.8c-0.4-0.7-0.1-1.6,0.6-2c27.8-15.6,51.6-37.8,70.7-66c0.5-0.7,1.4-0.9,2.1-0.4
		c0.7,0.5,0.9,1.4,0.4,2.1c-19.4,28.6-43.5,51.2-71.8,67C238.3,276.1,238.1,276.1,237.8,276.1z"/>
	<path d="M343.1,378.3c-5.6,5.3-11.9,10.1-19.5,13.1c-3.8,1.5-7.8,2.3-12,2.5c-4.1,0.2-8.4-0.5-12.3-1.9c-3.9-1.3-7.6-3.3-10.9-5.6
		c-3.4-2.3-6.5-5-9.2-8.1c-2.7-3.1-5-6.5-7-10c-1.9-3.6-3.6-7.2-4.9-10.9c-2.8-7.4-4.6-14.9-6.4-22.4c-1.8-7.4-3.4-14.9-5-22.2
		c-1.7-7.3-3.6-14.5-6.5-20.6c-0.7-1.5-1.6-3-2.5-4.3c-0.9-1.3-1.9-2.6-2.8-3.8c-1-1.2-2-2.4-3.1-3.7c-1.1-1.3-2.4-2.6-3.7-4.2
		l-0.1-0.1c-0.6-0.7-0.5-1.8,0.2-2.4c0.3-0.2,0.6-0.3,0.9-0.4c4.4-0.5,8.9,1.2,12.3,4c1.7,1.4,3.2,3.1,4.4,5
		c1.2,1.8,2.2,3.7,3.1,5.6c1.8,3.8,3.1,7.6,4.2,11.4c1.1,3.8,2,7.6,2.9,11.3c1.7,7.5,3.1,14.9,4.7,22.3c1.6,7.3,3.2,14.6,5.5,21.5
		c2.3,6.9,5.3,13.4,9.7,18.8c2.2,2.7,4.7,5.2,7.5,7.3c2.8,2.2,5.8,4,9,5.3c3.2,1.3,6.5,2.1,10,2.2c3.4,0.1,6.9-0.4,10.3-1.4
		c3.4-1,6.7-2.5,9.9-4.3c3.2-1.8,6.3-3.9,9.2-6.2c0.7-0.5,1.6-0.4,2.1,0.3C343.7,376.9,343.6,377.7,343.1,378.3z"/>
</g>
</svg>
