<?xml version="1.0" encoding="utf-8"?>
<!-- Generator: Adobe Illustrator 22.1.0, SVG Export Plug-In . SVG Version: 6.00 Build 0)  -->
<svg version="1.1" id="Layer_1" xmlns="http://www.w3.org/2000/svg" xmlns:xlink="http://www.w3.org/1999/xlink" x="0px" y="0px"
	 viewBox="0 0 379.7 496" style="enable-background:new 0 0 379.7 496;" xml:space="preserve">
<g>
	<path d="M14.5,234.4c1.8,1,3.8,1.9,5.8,2.6c2,0.7,4.2,1.3,6.4,1.8c4.4,0.9,9,1.3,13.7,1.3c9.4,0,19-1.6,28.5-4.1
		c4.7-1.3,9.4-2.7,14-4.3c2.3-0.8,4.6-1.7,6.9-2.6c2.3-0.9,4.6-1.8,6.9-2.7l6.8-2.9l3.4-1.4l3.4-1.5c2.2-1,4.5-2,6.7-3.1l6.6-3.3
		c2.2-1.1,4.4-2.3,6.6-3.4c2.2-1.2,4.4-2.3,6.5-3.5l6.4-3.7c2.1-1.2,4.2-2.5,6.3-3.8c8.4-5.1,16.7-10.5,24.7-16.2
		c15.9-11.5,31.2-24,43-39.5c6-7.7,11.4-15.9,16.1-24.5c2.4-4.3,4.5-8.7,6.5-13.2c2-4.5,3.7-9,5.1-13.6c1.4-4.6,2.6-9.3,2.8-13.9
		c0.1-2.3-0.1-4.5-0.8-6.2c-0.3-0.8-0.7-1.5-1.1-1.8c-0.4-0.4-0.7-0.4-1.1-0.4c-1.1,0-1.6,0.3-2.7,1.2c-1,0.9-2.2,2.4-3.3,4.1
		c-1.1,1.7-2.2,3.7-3.2,5.7c-1,2-2,4.1-3,6.2c-3.7,8.6-6.6,17.9-9.3,27.3c-2.6,9.4-5,18.9-7.2,28.5l-3.3,14.4l-1.6,7.3l-0.8,3.6
		l-0.9,3.7c-2.4,9.9-5.1,19.5-7.9,29c-5.6,19.2-11.6,38.1-17.7,57.1c-6.2,18.9-12.5,37.8-19.3,56.6c-3.4,9.4-6.9,18.8-10.7,28.1
		c-3.9,9.5-8.1,18.4-12.5,27.5c-8.8,18-17.9,35.7-27.8,53.1c-2.5,4.4-5,8.7-7.6,13c-2.6,4.3-5.2,8.6-8,12.8
		c-2.8,4.2-5.6,8.4-8.6,12.5c-3,4.1-6.1,8.2-9.6,12.2c-3.5,3.9-7.3,7.6-11.6,11c-4.3,3.3-9,6.3-14.4,8.3c-2.7,1-5.6,1.8-8.5,2.1
		c-3,0.3-6.1,0.3-9.1-0.4c-3-0.6-5.9-1.7-8.5-3.3c-1.3-0.8-2.5-1.6-3.7-2.5c-0.6-0.5-1.1-0.9-1.7-1.4c-0.5-0.5-1.1-1-1.7-1.7
		c-2.2-2.4-3.7-5.4-4.5-8.3c-0.8-2.9-1.1-5.8-1-8.6c0.1-5.6,1.2-10.8,2.8-15.8c1.5-5,3.4-9.7,5.6-14.4c2.2-4.6,4.5-9.1,7.1-13.5
		c5.1-8.8,11-16.9,17.2-24.8c6.2-7.9,12.7-15.5,19.2-23c26.5-29.8,55.3-57.4,85.2-83.6c14.9-13.1,29.8-26.2,44.4-39.6
		c7.3-6.7,14.6-13.4,21.8-20.2c7.3-6.7,14.5-13.6,21.6-20.4c14.3-13.7,28.5-27.6,42.4-41.7c13.9-14.1,27.5-28.5,40.5-43.4
		c6.5-7.5,12.8-15.1,18.8-22.9c6-7.8,11.5-15.9,16.4-24.4c2.4-4.3,4.7-8.6,6.7-13c2-4.4,3.8-9,5.2-13.6c1.4-4.6,2.6-9.3,3.1-14
		c0.2-1.2,0.2-2.4,0.3-3.5c0-1.2,0.1-2.4,0.1-3.5c0-2.3-0.3-4.7-0.7-6.9c-0.9-4.5-2.8-8.7-5.6-11.7c-2.8-3.1-6.6-4.9-10.3-5.2
		c-3.7-0.3-7,0.9-10.3,3.2c-3.3,2.2-6.4,5.4-9.3,8.8c-5.8,6.9-10.7,15.2-15.2,23.7c-4.4,8.6-8.4,17.5-12.1,26.5
		c-3.7,9-7.3,18.3-10.6,27.5c-3.3,9.2-6.6,18.6-9.7,28c-6.3,18.8-12.6,37.6-18.9,56.4l-18.7,56.5l-9.3,28.3l-2.3,7.1
		c-0.8,2.4-1.6,4.7-2.3,7c-1.5,4.6-2.8,9.4-4.3,14.1c-2.8,9.5-5.8,19.2-9.1,28.7c-3.4,9.5-7.2,19-11.9,28.3
		c-4.7,9.2-10.5,18.3-18.7,25.6c-4.1,3.6-8.9,6.8-14.2,8.7c-5.3,2-11.1,2.7-16.5,1.8c-1.7-0.3-2.9-1.9-2.6-3.6
		c0.2-1.4,1.3-2.4,2.5-2.6l0.1,0c4.5-0.8,8.7-2.3,12.4-4.6c3.7-2.2,7-5.1,10-8.4c3-3.3,5.7-6.9,8.2-10.8c2.5-3.9,4.8-8,7-12.2
		c4.2-8.5,7.7-17.5,10.8-26.7c3.1-9.2,5.8-18.6,8.5-28.2c1.3-4.8,2.7-9.6,4.1-14.4l4.5-14.3l9.1-28.4c6.1-18.9,12.3-37.8,18.5-56.6
		c6.3-18.8,12.6-37.7,19.2-56.5c3.3-9.4,6.6-18.8,10.1-28.2c3.6-9.4,7.3-18.6,11.2-27.9c4-9.2,8.2-18.4,13-27.4
		c2.4-4.5,5-9,7.8-13.3c2.8-4.4,5.9-8.7,9.5-12.7c3.6-4,7.8-7.8,13.1-10.6c2.7-1.4,5.6-2.5,8.7-3c1.6-0.3,3.2-0.4,4.8-0.3
		c1.6,0.1,3.2,0.3,4.7,0.7c3,0.8,5.8,2.1,8.3,3.9c2.4,1.8,4.5,3.9,6.2,6.3c3.3,4.8,5,10.2,5.7,15.5c1.4,10.6-0.6,21-3.8,30.6
		c-3.2,9.7-7.8,18.7-12.8,27.4c-5.1,8.7-10.8,16.9-16.9,24.9c-6.1,7.9-12.5,15.6-19,23.1c-26.1,30.1-54,58.5-82.6,86.1
		c-7.1,6.9-14.3,13.8-21.6,20.6c-7.3,6.8-14.6,13.5-21.9,20.2c-14.7,13.4-29.6,26.6-44.6,39.6c-15,12.9-29.7,26.2-43.8,40.1
		c-14.2,13.8-27.9,28-40.9,42.9c-6.5,7.5-12.8,15.1-18.8,22.9c-6,7.9-11.6,15.8-16.3,24.4c-4.7,8.5-8.6,17.5-10.9,26.7
		c-1.1,4.6-1.8,9.2-1.5,13.6c0.2,4.4,1.5,8.3,4,10.6c0.3,0.3,0.6,0.6,1.1,0.9c0.4,0.3,0.8,0.6,1.2,0.9c0.8,0.6,1.7,1.1,2.6,1.5
		c1.8,0.9,3.6,1.4,5.5,1.7c3.8,0.5,7.7-0.4,11.5-2c3.8-1.7,7.5-4.2,10.9-7.2c3.4-2.9,6.6-6.3,9.7-9.9c3-3.5,5.8-7.4,8.6-11.4
		c2.7-4,5.4-8,8-12.2c5.2-8.3,10.2-16.7,15.1-25.3c9.8-17.1,19.1-34.5,27.7-52.2c4.3-8.8,8.6-17.8,12.2-26.7
		c3.6-9.1,7.1-18.3,10.4-27.6c6.6-18.6,12.8-37.4,18.8-56.3c6-18.9,11.7-37.8,17.2-56.8l2-7.1l2-7.1c0.7-2.4,1.3-4.7,1.9-7.1
		l0.9-3.6l0.9-3.5l0.9-3.5l0.8-3.6l1.6-7.3c1.1-4.9,2.2-9.7,3.4-14.6c2.4-9.7,4.8-19.4,7.7-29.1c2.9-9.7,6.1-19.3,10.4-28.8
		c2.2-4.8,4.6-9.5,8.4-14c1.9-2.2,4.2-4.4,7.4-6.1c1.6-0.8,3.5-1.5,5.6-1.6c1-0.1,2.1,0,3.1,0.2c1,0.2,1.9,0.5,2.9,0.9
		c1.9,0.9,3.7,2.4,4.7,4.1c1,1.7,1.5,3.4,1.8,5c0.5,3.1,0.2,5.9-0.1,8.6c-0.8,5.3-2.2,10.3-3.8,15.1c-1.7,4.8-3.6,9.5-5.7,14.1
		c-1.1,2.3-2.2,4.6-3.3,6.8c-1.1,2.2-2.3,4.5-3.5,6.7c-4.9,8.8-10.3,17.3-16.3,25.4c-3,4-6.2,7.9-9.6,11.7c-1.7,1.9-3.5,3.6-5.3,5.5
		c-1.8,1.8-3.7,3.5-5.5,5.2c-7.5,6.8-15.4,13-23.6,18.7c-16.5,11.4-34,21-51.9,29.9l-6.7,3.3l-6.7,3.2c-4.5,2.2-9,4.2-13.5,6.4
		l-13.7,6.2c-4.6,2-9.3,4-14,5.7c-9.5,3.6-19.2,6.7-29.6,8.7c-10.3,2-21.4,2.7-33,0.8l-0.5-0.1c-5.3-0.9-8.9-5.9-8-11.3
		c0.9-5.3,5.9-8.9,11.3-8C12.5,233.5,13.6,233.9,14.5,234.4z"/>
	<path d="M239.3,279.1c-1.1,0-2.1-0.6-2.6-1.5c-0.8-1.4-0.3-3.3,1.2-4.1c27.6-15.5,51.2-37.5,70.2-65.6c0.9-1.4,2.8-1.7,4.2-0.8
		c1.4,0.9,1.7,2.8,0.8,4.2c-19.5,28.8-43.8,51.5-72.3,67.4C240.3,279,239.8,279.1,239.3,279.1z"/>
	<path d="M345.6,380.9c-5.7,5.4-12.2,10.3-20,13.4c-3.9,1.5-8.1,2.4-12.5,2.6c-4.3,0.2-8.7-0.5-12.8-2c-4.1-1.4-7.9-3.5-11.3-5.8
		c-3.4-2.4-6.7-5.2-9.5-8.3c-2.8-3.2-5.2-6.7-7.2-10.3c-2-3.6-3.6-7.4-5-11.1c-2.8-7.5-4.6-15.1-6.4-22.6c-1.8-7.5-3.4-14.9-5-22.2
		c-1.7-7.2-3.5-14.4-6.4-20.3c-0.7-1.5-1.5-2.9-2.3-4.1c-0.9-1.3-1.7-2.4-2.6-3.6c-0.9-1.2-1.8-2.3-2.8-3.5c-1-1.2-2.2-2.5-3.4-4.1
		l-0.2-0.2c-1.1-1.4-0.9-3.5,0.6-4.7c0.5-0.4,1.1-0.6,1.7-0.7c4.6-0.4,9.2,1.4,12.9,4.4c1.8,1.5,3.3,3.3,4.6,5.2
		c1.3,1.9,2.3,3.8,3.3,5.8c1.9,3.9,3.1,7.8,4.3,11.6c1.1,3.8,2,7.6,2.9,11.4c1.7,7.5,3.1,15,4.7,22.3c1.6,7.3,3.2,14.6,5.5,21.3
		c2.2,6.8,5.2,13.1,9.4,18.3c2.1,2.6,4.5,5,7.2,7c2.7,2.1,5.6,3.9,8.6,5.1c3,1.2,6.2,2,9.4,2.1c3.2,0.1,6.6-0.3,9.8-1.3
		c3.3-1,6.5-2.4,9.6-4.2c3.1-1.7,6.1-3.8,9-6.1l0,0c1.3-1,3.3-0.8,4.3,0.5C346.9,378,346.7,379.8,345.6,380.9z"/>
</g>
</svg>
