<?xml version="1.0" standalone="no"?>
<!DOCTYPE svg PUBLIC "-//W3C//DTD SVG 20010904//EN"
 "http://www.w3.org/TR/2001/REC-SVG-20010904/DTD/svg10.dtd">
<svg version="1.0" xmlns="http://www.w3.org/2000/svg"
 width="992.000000pt" height="992.000000pt" viewBox="0 0 992.000000 992.000000"
 preserveAspectRatio="xMidYMid meet">
<metadata>
Created by potrace 1.11, written by Peter Selinger 2001-2013
</metadata>
<g transform="translate(0.000000,992.000000) scale(0.100000,-0.100000)"
fill="#000000" stroke="none">
<path d="M8072 9894 c-129 -43 -195 -87 -322 -214 -200 -201 -420 -577 -640
-1095 -23 -55 -51 -119 -61 -142 -10 -23 -19 -48 -19 -55 0 -8 -4 -18 -8 -23
-5 -6 -24 -48 -42 -95 -18 -47 -39 -98 -46 -115 -20 -48 -74 -189 -74 -196 0
-4 -8 -24 -17 -45 -9 -22 -18 -45 -19 -52 -1 -8 -6 -21 -10 -30 -4 -9 -8 -19
-8 -22 -1 -3 -6 -18 -13 -35 -19 -52 -26 -70 -29 -80 -1 -5 -19 -55 -38 -110
-20 -55 -50 -140 -67 -190 -16 -49 -34 -99 -38 -110 -8 -18 -48 -134 -55 -160
-2 -5 -6 -17 -9 -25 -14 -38 -79 -227 -82 -240 -2 -8 -58 -177 -125 -375 -67
-198 -123 -364 -124 -370 -9 -37 -78 -243 -86 -257 -6 -10 -10 -28 -10 -40 0
-24 -116 -140 -514 -513 -140 -131 -289 -269 -340 -316 -33 -30 -73 -67 -90
-84 -17 -16 -56 -52 -86 -79 -64 -57 -188 -170 -263 -238 -55 -50 -74 -60 -58
-30 6 11 12 30 15 43 3 13 25 83 49 154 24 72 54 164 67 205 12 41 26 84 30
95 7 16 70 214 75 235 2 8 35 124 39 135 2 6 5 15 6 20 2 6 11 35 22 65 11 30
21 62 23 70 4 18 73 253 115 390 16 52 31 106 34 120 3 14 10 41 16 60 6 19
14 49 17 65 3 17 9 37 14 46 4 9 10 28 13 44 3 15 17 76 32 134 14 58 27 111
28 116 1 6 5 19 9 30 3 11 8 38 12 60 11 74 25 112 52 141 16 16 44 49 63 74
19 25 39 50 45 56 5 6 19 23 30 38 11 16 25 34 30 40 6 7 15 19 20 28 6 9 49
74 96 144 237 355 419 741 495 1049 34 142 37 287 7 355 -42 94 -110 135 -223
135 -69 -1 -81 -4 -136 -38 -53 -32 -121 -96 -177 -165 -46 -59 -178 -337
-221 -467 -9 -27 -21 -59 -26 -70 -9 -20 -50 -146 -54 -168 -2 -7 -6 -19 -9
-27 -7 -19 -42 -140 -58 -200 -6 -25 -14 -52 -17 -60 -3 -8 -6 -19 -7 -25 -2
-5 -8 -30 -15 -55 -7 -25 -13 -52 -15 -60 -2 -8 -8 -35 -15 -60 -7 -25 -13
-49 -14 -55 -1 -5 -5 -19 -9 -30 -3 -11 -8 -31 -11 -45 -3 -14 -10 -43 -16
-65 -6 -22 -12 -49 -14 -60 -2 -11 -16 -72 -31 -135 -14 -63 -28 -124 -31
-135 -2 -11 -11 -54 -21 -95 -9 -41 -16 -78 -15 -82 1 -3 -19 -22 -43 -43 -25
-20 -50 -41 -57 -48 -7 -7 -33 -28 -58 -47 -25 -19 -47 -37 -50 -41 -3 -3 -59
-45 -125 -94 -66 -49 -136 -100 -155 -115 -29 -22 -184 -125 -340 -226 -101
-65 -300 -182 -300 -176 0 4 -4 2 -8 -4 -8 -12 -93 -59 -262 -145 -58 -29
-107 -56 -110 -59 -6 -6 -6 -6 -218 -101 -85 -38 -160 -69 -168 -69 -8 0 -14
-4 -14 -10 0 -5 -5 -10 -10 -10 -6 0 -84 -29 -173 -64 -89 -35 -193 -74 -232
-86 -38 -12 -77 -24 -85 -27 -8 -3 -19 -7 -25 -9 -36 -9 -126 -35 -155 -44
-19 -6 -48 -13 -65 -15 -16 -3 -41 -7 -55 -10 -185 -40 -333 -52 -526 -41 -85
5 -242 35 -289 56 -11 5 -51 23 -88 40 -115 52 -195 45 -267 -25 -41 -40 -39
-35 -46 -126 -5 -60 -3 -71 21 -108 42 -67 96 -93 225 -107 87 -9 287 -10 380
-1 71 7 90 10 158 22 15 3 43 8 62 11 103 16 547 152 621 190 15 7 29 10 33 7
3 -4 6 -1 6 5 0 7 6 12 13 12 14 0 131 49 255 106 41 19 75 34 77 34 2 0 61
27 132 61 70 33 162 77 203 96 97 44 578 285 650 325 30 16 83 45 118 64 101
56 125 69 234 135 171 104 356 227 477 317 133 98 127 94 165 127 16 14 30 24
32 22 3 -2 -58 -222 -146 -532 -19 -66 -87 -296 -115 -390 -14 -44 -25 -83
-25 -87 0 -5 -7 -25 -15 -45 -14 -39 -58 -186 -56 -190 0 -2 -6 -20 -13 -40
-17 -44 -105 -323 -107 -338 -1 -5 -9 -30 -19 -55 -10 -25 -18 -48 -18 -53 0
-4 -15 -51 -32 -105 -32 -100 -36 -112 -39 -124 -1 -4 -8 -23 -17 -43 -8 -19
-11 -35 -8 -35 4 0 2 -6 -3 -13 -5 -6 -20 -46 -33 -87 -24 -80 -21 -77 -164
-204 -91 -81 -81 -72 -166 -146 -41 -36 -88 -78 -106 -95 -17 -16 -51 -47 -75
-69 -48 -42 -119 -108 -303 -280 -135 -125 -622 -610 -736 -732 -83 -89 -232
-252 -301 -328 -24 -28 -51 -57 -59 -66 -8 -9 -33 -38 -55 -64 -22 -27 -45
-54 -50 -60 -6 -6 -44 -51 -85 -101 -41 -49 -78 -92 -82 -93 -5 -2 -8 -8 -8
-13 0 -5 -8 -17 -17 -27 -35 -34 -211 -269 -280 -372 -115 -173 -243 -397
-243 -426 0 -8 -4 -14 -10 -14 -5 0 -10 -4 -10 -10 0 -5 -11 -33 -24 -62 -41
-91 -57 -131 -77 -195 -37 -116 -66 -248 -68 -308 -1 -33 -3 -75 -5 -93 -1
-18 1 -35 6 -38 5 -3 6 -9 3 -14 -8 -12 14 -96 38 -150 56 -124 229 -252 377
-279 81 -14 224 -6 300 18 255 79 485 271 739 616 45 61 85 115 89 120 4 6 17
25 27 42 11 18 24 33 29 33 5 0 7 3 3 6 -3 4 11 29 31 58 69 94 260 411 355
586 22 41 43 77 46 80 3 3 17 28 31 55 14 28 28 51 33 53 4 2 7 12 7 22 0 10
3 20 8 22 4 2 15 19 26 38 172 325 440 863 521 1045 35 78 54 126 52 129 -1 1
4 10 12 19 7 10 10 17 5 17 -5 0 -4 4 1 8 6 4 37 75 69 157 32 83 64 164 71
180 15 36 41 104 90 240 19 55 39 107 42 115 3 8 7 20 8 25 2 10 81 236 92
265 3 8 32 92 64 185 40 116 66 176 81 188 46 38 128 110 171 151 24 22 76 69
114 103 38 34 83 74 100 90 17 15 68 62 114 103 45 41 99 91 119 110 20 19 79
73 130 120 51 47 119 110 151 140 31 30 106 100 165 155 59 55 141 134 182
175 54 55 72 68 67 50 -4 -14 -46 -142 -92 -285 -47 -143 -95 -294 -108 -335
-13 -41 -28 -88 -35 -105 -6 -16 -12 -32 -12 -35 -1 -6 4 9 -59 -190 -29 -91
-54 -169 -55 -175 -1 -5 -10 -37 -20 -70 -10 -33 -19 -62 -19 -65 -1 -3 -4
-12 -8 -20 -5 -13 -22 -73 -33 -120 -2 -8 -10 -40 -19 -70 -9 -30 -23 -80 -31
-110 -33 -117 -42 -149 -78 -265 -21 -66 -53 -165 -73 -220 -19 -55 -36 -104
-37 -110 -2 -5 -7 -19 -11 -30 -4 -11 -26 -65 -47 -120 -52 -131 -108 -249
-170 -360 -50 -88 -117 -195 -128 -205 -3 -3 -14 -18 -24 -34 -26 -41 -69 -90
-146 -165 -101 -98 -173 -143 -305 -188 -38 -13 -71 -23 -72 -23 -38 4 -66
-21 -69 -58 -3 -53 23 -67 135 -69 154 -3 286 39 432 138 58 38 193 165 244
229 76 94 182 264 247 400 50 102 108 230 108 237 0 3 6 19 14 36 40 90 195
530 196 559 1 4 8 27 16 50 9 24 17 50 19 58 10 39 57 197 64 215 10 24 72
231 79 263 2 13 10 21 16 19 9 -3 91 -100 152 -182 31 -42 121 -245 108 -245
-4 0 -2 -6 4 -13 13 -16 78 -267 95 -372 2 -11 7 -29 10 -40 3 -11 8 -31 11
-45 2 -14 10 -47 16 -75 6 -27 14 -61 16 -75 3 -14 8 -34 11 -45 4 -11 8 -24
9 -30 1 -5 5 -22 8 -37 3 -16 8 -38 11 -51 11 -54 86 -308 105 -358 33 -86
119 -270 130 -279 4 -3 26 -34 49 -68 59 -88 169 -193 274 -263 84 -55 203
-112 257 -123 14 -3 48 -9 75 -15 82 -16 234 -6 315 21 19 7 40 13 45 14 21 3
111 47 170 82 76 45 177 122 234 179 36 36 42 47 36 70 -15 63 -60 64 -141 3
-29 -22 -57 -40 -63 -40 -5 0 -11 -4 -13 -9 -6 -15 -150 -87 -233 -116 -112
-38 -243 -42 -341 -8 -38 13 -74 25 -80 26 -18 4 -124 72 -164 104 -58 47
-130 125 -171 185 -57 84 -146 278 -164 361 -2 9 -6 21 -9 25 -3 5 -7 19 -9
33 -3 13 -14 60 -26 104 -11 44 -30 123 -41 175 -27 118 -27 119 -34 165 -4
20 -8 41 -11 45 -3 4 -7 25 -10 45 -2 21 -7 45 -9 54 -3 9 -7 27 -10 41 -2 14
-11 55 -20 91 -8 37 -17 78 -20 90 -3 13 -16 67 -30 119 -14 52 -27 100 -29
107 -2 7 -6 16 -10 19 -4 4 -7 16 -7 26 0 10 -4 26 -9 36 -5 9 -29 57 -53 106
-23 50 -49 100 -56 113 -23 40 -120 131 -161 150 -22 10 -40 20 -40 23 0 3 46
34 101 70 89 57 254 173 268 189 3 4 21 18 40 33 19 14 49 39 67 54 17 16 51
45 75 64 89 73 373 364 463 476 21 27 42 51 45 54 9 9 154 202 202 270 33 47
44 73 42 93 -5 50 -59 74 -91 41 -9 -8 -49 -61 -89 -117 -211 -293 -479 -585
-719 -782 -27 -22 -56 -47 -64 -55 -31 -29 -237 -177 -326 -235 -123 -79 -135
-86 -135 -82 0 6 31 101 40 122 8 19 140 420 145 440 1 6 5 17 8 25 3 8 52
155 107 325 56 171 105 319 110 330 5 11 27 76 50 144 l41 125 139 140 c175
177 362 370 462 478 42 46 98 106 125 134 26 28 80 86 118 129 39 43 81 90 95
105 14 15 48 53 75 84 28 32 69 78 91 102 23 24 39 44 36 44 -3 0 1 6 10 13 9
6 33 33 55 58 21 25 57 67 80 95 23 27 50 59 60 71 11 12 28 34 39 49 10 14
26 34 34 43 9 9 33 39 55 66 22 28 43 52 47 53 5 2 8 10 8 17 0 7 4 15 8 17
26 10 257 345 361 522 162 275 288 589 318 791 2 17 7 37 10 45 10 27 12 309
2 315 -5 4 -7 11 -4 16 8 13 -23 132 -52 197 -112 253 -369 378 -611 296z
m328 -211 c59 -28 118 -85 158 -150 17 -29 29 -53 26 -53 -4 0 -2 -6 3 -12 13
-16 27 -71 38 -148 7 -40 7 -173 1 -210 -3 -14 -7 -47 -11 -74 -3 -27 -8 -53
-10 -56 -2 -4 -7 -20 -10 -36 -3 -16 -12 -54 -20 -84 -9 -30 -18 -62 -20 -70
-2 -8 -4 -16 -5 -17 -2 -2 -3 -6 -5 -10 -1 -5 -5 -17 -10 -28 -4 -11 -20 -51
-35 -90 -35 -89 -110 -248 -120 -255 -4 -3 -11 -16 -15 -30 -4 -14 -12 -32
-19 -40 -13 -17 -34 -53 -53 -91 -7 -14 -55 -89 -108 -168 -146 -220 -376
-512 -607 -772 -31 -35 -65 -74 -75 -85 -115 -134 -443 -482 -706 -748 -145
-147 -206 -203 -202 -186 2 14 93 286 201 605 107 319 197 587 199 595 4 14
36 106 145 415 23 66 49 132 56 147 8 15 14 30 13 33 -1 6 22 70 49 135 5 14
20 52 33 85 12 33 30 79 41 102 10 23 18 45 18 48 0 4 7 21 14 38 8 18 42 94
75 170 75 169 160 345 219 452 56 101 201 319 242 365 132 148 209 209 310
243 37 12 147 1 190 -20z m-2313 -1190 c4 -10 11 -21 17 -25 18 -12 15 -175
-6 -267 -21 -96 -70 -252 -102 -321 -11 -25 -21 -47 -21 -50 -11 -41 -111
-245 -177 -360 -104 -180 -225 -357 -306 -449 -13 -14 -21 -20 -17 -13 3 7 9
24 11 39 3 15 14 66 25 113 27 110 24 99 37 145 6 22 13 51 16 65 3 14 10 43
16 65 6 22 13 49 16 60 3 11 7 27 9 35 2 8 4 16 4 18 1 1 1 4 2 7 1 2 12 42
26 87 13 46 26 90 28 98 2 8 4 16 5 18 2 1 3 5 5 10 1 4 4 14 7 22 6 15 30 97
34 115 3 14 58 160 79 210 80 193 189 375 224 375 6 0 11 5 11 10 0 18 50 11
57 -7z m-1822 -4615 c-13 -35 -54 -146 -91 -248 -63 -177 -125 -342 -143 -385
-12 -25 -23 -57 -26 -70 -5 -17 -171 -386 -210 -465 -87 -177 -215 -432 -259
-515 -26 -49 -63 -121 -83 -160 -20 -38 -42 -73 -47 -77 -6 -4 -7 -8 -3 -8 5
0 0 -12 -10 -27 -11 -16 -24 -39 -31 -53 -6 -14 -16 -32 -21 -40 -20 -30 -121
-212 -121 -216 0 -3 -16 -30 -35 -60 -19 -30 -35 -56 -35 -59 0 -2 -51 -88
-112 -190 -62 -102 -117 -194 -123 -203 -28 -47 -60 -98 -70 -108 -5 -7 -22
-31 -37 -55 -47 -76 -52 -82 -95 -142 -24 -31 -43 -61 -43 -66 0 -5 -3 -11 -7
-13 -5 -1 -28 -30 -53 -62 -99 -132 -287 -304 -400 -370 -52 -29 -168 -68
-180 -61 -5 3 -11 1 -14 -3 -9 -15 -134 -2 -176 18 -8 4 -28 14 -43 21 -77 36
-138 117 -153 204 -15 84 -6 225 20 322 8 29 13 53 10 53 -2 0 5 20 16 45 11
25 18 45 16 45 -7 0 67 187 107 270 22 47 149 275 156 280 10 8 31 43 37 63 4
9 10 17 14 17 4 0 11 10 17 23 9 19 240 334 267 363 12 12 17 19 81 99 22 27
49 60 60 72 11 12 25 28 30 35 18 23 189 221 210 243 11 11 42 45 69 75 248
277 760 788 1082 1080 155 140 232 209 320 285 32 28 72 62 89 77 16 15 33 28
37 28 3 0 -4 -28 -17 -62z"/>
</g>
</svg>
